<svg width="24" height="24" viewBox="0 0 24 24" fill="none" xmlns="http://www.w3.org/2000/svg">
<path fill-rule="evenodd" clip-rule="evenodd" d="M12 23.3143C18.2487 23.3143 23.3143 18.2487 23.3143 12C23.3143 5.75129 18.2487 0.685714 12 0.685714C5.75129 0.685714 0.685714 5.75129 0.685714 12C0.685714 18.2487 5.75129 23.3143 12 23.3143ZM12 24C18.6274 24 24 18.6274 24 12C24 5.37258 18.6274 0 12 0C5.37258 0 0 5.37258 0 12C0 18.6274 5.37258 24 12 24Z" fill="black"/>
<path fill-rule="evenodd" clip-rule="evenodd" d="M12.9683 7.28214C13.2001 7.04707 13.5784 7.04354 13.8146 7.27423L14.0572 7.51109C14.2951 7.74344 14.2987 8.12497 14.0651 8.36172L10.7136 11.7592C10.5819 11.8927 10.5819 12.1073 10.7136 12.2408L14.0651 15.6383C14.2987 15.875 14.2951 16.2566 14.0572 16.4889L13.8146 16.7258C13.5784 16.9565 13.2001 16.9529 12.9683 16.7179L8.61118 12.301C8.44656 12.1341 8.44656 11.8659 8.61118 11.699L12.9683 7.28214Z" fill="black"/>
</svg>
