<?xml version="1.0" encoding="UTF-8"?>
<svg id="Layer_13" data-name="Layer 13" xmlns="http://www.w3.org/2000/svg" xmlns:xlink="http://www.w3.org/1999/xlink" viewBox="0 0 391.28 428.3">
  <defs>
    <style>
      .cls-1 {
        clip-path: url(#clippath);
      }

      .cls-2 {
        fill: none;
      }

      .cls-2, .cls-3, .cls-4, .cls-5, .cls-6, .cls-7, .cls-8, .cls-9, .cls-10, .cls-11, .cls-12, .cls-13, .cls-14, .cls-15, .cls-16, .cls-17, .cls-18, .cls-19, .cls-20, .cls-21, .cls-22, .cls-23, .cls-24 {
        stroke-width: 0px;
      }

      .cls-3 {
        fill: url(#linear-gradient);
      }

      .cls-25 {
        stroke-miterlimit: 10;
      }

      .cls-25, .cls-26, .cls-27 {
        stroke: #2d2d2d;
      }

      .cls-25, .cls-11, .cls-27 {
        fill: #d07b92;
      }

      .cls-25, .cls-27 {
        stroke-width: 4px;
      }

      .cls-4 {
        fill: #dd7800;
        opacity: .41;
      }

      .cls-28 {
        clip-path: url(#clippath-1);
      }

      .cls-29 {
        clip-path: url(#clippath-4);
      }

      .cls-30 {
        clip-path: url(#clippath-3);
      }

      .cls-31 {
        clip-path: url(#clippath-2);
      }

      .cls-32 {
        clip-path: url(#clippath-7);
      }

      .cls-33 {
        clip-path: url(#clippath-8);
      }

      .cls-34 {
        clip-path: url(#clippath-6);
      }

      .cls-35 {
        clip-path: url(#clippath-5);
      }

      .cls-36 {
        clip-path: url(#clippath-9);
      }

      .cls-26 {
        fill: #141414;
        stroke-linejoin: bevel;
        stroke-width: 6px;
      }

      .cls-37 {
        clip-path: url(#clippath-20);
      }

      .cls-38 {
        clip-path: url(#clippath-21);
      }

      .cls-39 {
        clip-path: url(#clippath-23);
      }

      .cls-40 {
        clip-path: url(#clippath-22);
      }

      .cls-41 {
        clip-path: url(#clippath-14);
      }

      .cls-42 {
        clip-path: url(#clippath-13);
      }

      .cls-43 {
        clip-path: url(#clippath-12);
      }

      .cls-44 {
        clip-path: url(#clippath-10);
      }

      .cls-45 {
        clip-path: url(#clippath-15);
      }

      .cls-46 {
        clip-path: url(#clippath-17);
      }

      .cls-47 {
        clip-path: url(#clippath-16);
      }

      .cls-48 {
        clip-path: url(#clippath-19);
      }

      .cls-49 {
        clip-path: url(#clippath-11);
      }

      .cls-50 {
        clip-path: url(#clippath-18);
      }

      .cls-51 {
        opacity: .5;
      }

      .cls-5 {
        fill: #fa9300;
      }

      .cls-6 {
        fill: #f7e3d2;
      }

      .cls-7 {
        fill: #f6f7fd;
      }

      .cls-8 {
        fill: #4f2900;
      }

      .cls-9 {
        fill: #2d2d2d;
      }

      .cls-10 {
        fill: #54acbb;
      }

      .cls-12 {
        fill: #cb701f;
      }

      .cls-13 {
        fill: #d89444;
      }

      .cls-14 {
        fill: #d87600;
      }

      .cls-15 {
        fill: #2f858e;
      }

      .cls-16 {
        fill: #ff9408;
      }

      .cls-17 {
        fill: #fec272;
      }

      .cls-18 {
        fill: #fff;
      }

      .cls-19 {
        fill: #ef8b06;
      }

      .cls-20 {
        fill: #eec19c;
      }

      .cls-21 {
        fill: #fda700;
      }

      .cls-22 {
        fill: #fcf1e8;
      }

      .cls-23 {
        fill: #fcf1e0;
      }

      .cls-24 {
        fill: #ffa600;
      }

      .cls-27 {
        stroke-linejoin: round;
      }
    </style>
    <linearGradient id="linear-gradient" x1="62.08" y1="125.49" x2="382.7" y2="338.33" gradientUnits="userSpaceOnUse">
      <stop offset=".01" stop-color="#f3c900"/>
      <stop offset=".3" stop-color="#f1c305"/>
      <stop offset=".68" stop-color="#eeb316"/>
      <stop offset="1" stop-color="#eaa12a"/>
    </linearGradient>
    <clipPath id="clippath">
      <path class="cls-2" d="M391.12,283.17v-138.04c0-27.13-14.47-52.19-37.97-65.76L233.61,10.35c-23.49-13.56-52.44-13.56-75.93,0L38.13,79.37C14.64,92.94.16,118,.16,145.13v138.04c0,27.13,14.47,52.19,37.97,65.76l119.55,69.02c23.49,13.56,52.44,13.56,75.93,0l119.55-69.02c23.49-13.56,37.97-38.63,37.97-65.76Z"/>
    </clipPath>
    <clipPath id="clippath-1">
      <path class="cls-2" d="M109.86,199.94c15.5-11.08,45.76-19.49,65.56,2.74l.12.14c8.08,9.96,9.09,10.01,12.43,10.16,4.78.21,27.85,0,28.08,0h.25s.25.03.25.03c.21.02,6.32.5,10.76-5.62,7.64-10.54,29.07-27.31,55.45-15.32,5.83,2.65,10.27,4.73,13.51,6.25,7.24,3.4,9.26,4.34,11.62,4.51-10.3-45.12-49.62-79.87-98.06-82.26-1.76-.09-3.51-.13-5.26-.13-50.04,0-92.79,35.2-103.36,83.01,2.91.17,6.42-1.91,8.66-3.51Z"/>
    </clipPath>
    <clipPath id="clippath-2">
      <path class="cls-2" d="M316.61,228.97c.57-1.75,1.1-3.4,1.42-5.02.69-5.49.02-9.46-1.96-11.47-1.76-1.79-4.3-1.64-4.33-1.64l-.21.02c-6.81.37-7.49.06-18.7-5.21-3.4-1.6-7.63-3.58-13.42-6.21-9.76-4.44-19.53-4.54-29.04-.32-7.68,3.41-13.56,8.96-16.5,13.03-6.66,9.19-16.02,9.07-17.91,8.94-2.33.02-23.52.21-28.35,0-6.69-.3-9.61-2.38-18.29-13.07-7.34-8.2-16.95-11.91-28.55-11.02-9,.69-18.79,4.26-26.19,9.55-10.81,7.72-17.63,4.99-20.99,2.26-5.2,5.16-6.91,13.37-6.28,15.59,6.56,6.48,3.84,15.83,3.72,16.23l-.47,1.55-1.36.77c-.44.36-1.53,2.21-1.68,4.62-.06.95,0,2.7,1.06,3.76,4.61,4.61,11.18,8.85,14.71,11.13,1,.65,1.73,1.12,2.25,1.49,11.59,7.79,33.16,15.05,70.12,5.46,22.44-5.82,33.5-3.99,57.72.04,4.14.69,8.83,1.47,14,2.28,31.72,4.96,56.72-8.65,67.39-14.47l1.51-.82c1.78-.96,2.81-2.11,3.15-3.52.64-2.67-1.07-6.05-1.89-7.31-4.54-5.46-2.53-11.65-.91-16.63ZM174.25,241.55c-.03.17-.06.33-.1.5-.03.11-.05.22-.08.33-.13.55-.29,1.1-.47,1.64-.01.04-.02.07-.03.11-.09.25-.18.51-.28.76-.04.11-.09.23-.13.34-.1.25-.21.49-.32.74-.04.08-.07.15-.11.23-1.98,4.22-5.44,7.99-9.99,10.7-4.82,2.87-10.37,4.31-16.21,4.31s-11.56-1.34-17.4-4.02c-19.73-9.08-17.58-31.9-13.68-42.73.35-1.02,3.09-8.29,10.89-11.64,6.7-2.88,14.88-2.02,24.32,2.54,15.84,7.65,21.29,18.26,23.11,25.6,1.02,3.5,1.19,7.15.49,10.6ZM277.72,262.5c-4.79,1.65-9.55,2.47-14.1,2.47-7.2,0-13.88-2.04-19.32-6.05-2.88-2.12-5.22-4.68-6.91-7.46-5.71-8.07-4.54-19.29,2.39-27.04,3.87-5.6,10.43-11.51,21.6-15.61,9.84-3.61,18.07-3.66,24.45-.14,7.43,4.1,9.45,11.6,9.7,12.65,2.82,11.16,2.71,34.08-17.81,41.18Z"/>
    </clipPath>
    <clipPath id="clippath-3">
      <path class="cls-2" d="M316.61,228.97c.57-1.75,1.1-3.4,1.42-5.02.69-5.49.02-9.46-1.96-11.47-1.76-1.79-4.3-1.64-4.33-1.64l-.21.02c-6.81.37-7.49.06-18.7-5.21-3.4-1.6-7.63-3.58-13.42-6.21-9.76-4.44-19.53-4.54-29.04-.32-7.68,3.41-13.56,8.96-16.5,13.03-6.66,9.19-16.02,9.07-17.91,8.94-2.33.02-23.52.21-28.35,0-6.69-.3-9.61-2.38-18.29-13.07-7.34-8.2-16.95-11.91-28.55-11.02-9,.69-18.79,4.26-26.19,9.55-10.81,7.72-17.63,4.99-20.99,2.26-5.2,5.16-6.91,13.37-6.28,15.59,6.56,6.48,3.84,15.83,3.72,16.23l-.47,1.55-1.36.77c-.44.36-1.53,2.21-1.68,4.62-.06.95,0,2.7,1.06,3.76,4.61,4.61,11.18,8.85,14.71,11.13,1,.65,1.73,1.12,2.25,1.49,11.59,7.79,33.16,15.05,70.12,5.46,22.44-5.82,33.5-3.99,57.72.04,4.14.69,8.83,1.47,14,2.28,31.72,4.96,56.72-8.65,67.39-14.47l1.51-.82c1.78-.96,2.81-2.11,3.15-3.52.64-2.67-1.07-6.05-1.89-7.31-4.54-5.46-2.53-11.65-.91-16.63ZM174.25,241.55c-.03.17-.06.33-.1.5-.03.11-.05.22-.08.33-.13.55-.29,1.1-.47,1.64-.01.04-.02.07-.03.11-.09.25-.18.51-.28.76-.04.11-.09.23-.13.34-.1.25-.21.49-.32.74-.04.08-.07.15-.11.23-1.98,4.22-5.44,7.99-9.99,10.7-4.82,2.87-10.37,4.31-16.21,4.31s-11.56-1.34-17.4-4.02c-19.73-9.08-17.58-31.9-13.68-42.73.35-1.02,3.09-8.29,10.89-11.64,6.7-2.88,14.88-2.02,24.32,2.54,15.84,7.65,21.29,18.26,23.11,25.6,1.02,3.5,1.19,7.15.49,10.6ZM277.72,262.5c-4.79,1.65-9.55,2.47-14.1,2.47-7.2,0-13.88-2.04-19.32-6.05-2.88-2.12-5.22-4.68-6.91-7.46-5.71-8.07-4.54-19.29,2.39-27.04,3.87-5.6,10.43-11.51,21.6-15.61,9.84-3.61,18.07-3.66,24.45-.14,7.43,4.1,9.45,11.6,9.7,12.65,2.82,11.16,2.71,34.08-17.81,41.18Z"/>
    </clipPath>
    <clipPath id="clippath-4">
      <path class="cls-2" d="M316.61,228.97c.57-1.75,1.1-3.4,1.42-5.02.69-5.49.02-9.46-1.96-11.47-1.76-1.79-4.3-1.64-4.33-1.64l-.21.02c-6.81.37-7.49.06-18.7-5.21-3.4-1.6-7.63-3.58-13.42-6.21-9.76-4.44-19.53-4.54-29.04-.32-7.68,3.41-13.56,8.96-16.5,13.03-6.66,9.19-16.02,9.07-17.91,8.94-2.33.02-23.52.21-28.35,0-6.69-.3-9.61-2.38-18.29-13.07-7.34-8.2-16.95-11.91-28.55-11.02-9,.69-18.79,4.26-26.19,9.55-10.81,7.72-17.63,4.99-20.99,2.26-5.2,5.16-6.91,13.37-6.28,15.59,6.56,6.48,3.84,15.83,3.72,16.23l-.47,1.55-1.36.77c-.44.36-1.53,2.21-1.68,4.62-.06.95,0,2.7,1.06,3.76,4.61,4.61,11.18,8.85,14.71,11.13,1,.65,1.73,1.12,2.25,1.49,11.59,7.79,33.16,15.05,70.12,5.46,22.44-5.82,33.5-3.99,57.72.04,4.14.69,8.83,1.47,14,2.28,31.72,4.96,56.72-8.65,67.39-14.47l1.51-.82c1.78-.96,2.81-2.11,3.15-3.52.64-2.67-1.07-6.05-1.89-7.31-4.54-5.46-2.53-11.65-.91-16.63ZM174.25,241.55c-.03.17-.06.33-.1.5-.03.11-.05.22-.08.33-.13.55-.29,1.1-.47,1.64-.01.04-.02.07-.03.11-.09.25-.18.51-.28.76-.04.11-.09.23-.13.34-.1.25-.21.49-.32.74-.04.08-.07.15-.11.23-1.98,4.22-5.44,7.99-9.99,10.7-4.82,2.87-10.37,4.31-16.21,4.31s-11.56-1.34-17.4-4.02c-19.73-9.08-17.58-31.9-13.68-42.73.35-1.02,3.09-8.29,10.89-11.64,6.7-2.88,14.88-2.02,24.32,2.54,15.84,7.65,21.29,18.26,23.11,25.6,1.02,3.5,1.19,7.15.49,10.6ZM277.72,262.5c-4.79,1.65-9.55,2.47-14.1,2.47-7.2,0-13.88-2.04-19.32-6.05-2.88-2.12-5.22-4.68-6.91-7.46-5.71-8.07-4.54-19.29,2.39-27.04,3.87-5.6,10.43-11.51,21.6-15.61,9.84-3.61,18.07-3.66,24.45-.14,7.43,4.1,9.45,11.6,9.7,12.65,2.82,11.16,2.71,34.08-17.81,41.18Z"/>
    </clipPath>
    <clipPath id="clippath-5">
      <path class="cls-2" d="M109.86,199.94c15.5-11.08,45.76-19.49,65.56,2.74l.12.14c8.08,9.96,9.09,10.01,12.43,10.16,4.78.21,27.85,0,28.08,0h.25s.25.03.25.03c.21.02,6.32.5,10.76-5.62,7.64-10.54,29.07-27.31,55.45-15.32,5.83,2.65,10.27,4.73,13.51,6.25,7.24,3.4,9.26,4.34,11.62,4.51-10.3-45.12-49.62-79.87-98.06-82.26-1.76-.09-3.51-.13-5.26-.13-50.04,0-92.79,35.2-103.36,83.01,2.91.17,6.42-1.91,8.66-3.51Z"/>
    </clipPath>
    <clipPath id="clippath-6">
      <path class="cls-2" d="M246.1,279.7c-5.2-.81-9.92-1.6-14.07-2.29-23.75-3.94-33.58-5.58-54.36-.19-10.2,2.65-22.36,4.81-34.81,4.81-14.45,0-29.29-2.92-41.91-11.42l-.09-.06c-.37-.26-1.12-.75-1.99-1.31-1.63-1.05-3.87-2.5-6.31-4.22-1.11,2.91-1.75,5.88-1.9,8.91-.72,14.54,9.83,28.97,29.7,40.64,20.68,12.14,48.68,19.65,78.86,21.14,30.18,1.48,58.79-3.24,80.56-13.29,20.92-9.66,32.83-22.99,33.55-37.53.26-5.32-.99-10.64-3.71-15.86-13.8,6.69-36.22,14.94-63.52,10.67Z"/>
    </clipPath>
    <clipPath id="clippath-7">
      <path class="cls-2" d="M246.1,279.7c-5.2-.81-9.92-1.6-14.07-2.29-23.75-3.94-33.58-5.58-54.36-.19-10.2,2.65-22.36,4.81-34.81,4.81-14.45,0-29.29-2.92-41.91-11.42l-.09-.06c-.37-.26-1.12-.75-1.99-1.31-1.63-1.05-3.87-2.5-6.31-4.22-1.11,2.91-1.75,5.88-1.9,8.91-.72,14.54,9.83,28.97,29.7,40.64,20.68,12.14,48.68,19.65,78.86,21.14,30.18,1.48,58.79-3.24,80.56-13.29,20.92-9.66,32.83-22.99,33.55-37.53.26-5.32-.99-10.64-3.71-15.86-13.8,6.69-36.22,14.94-63.52,10.67Z"/>
    </clipPath>
    <clipPath id="clippath-8">
      <path class="cls-2" d="M163.56,338.53c-.21-.05-.43-.07-.64-.07-1.03,0-2.01.55-2.55,1.47-6,10.26-9.75,22.47-10.83,35.3-.07.8.2,1.58.75,2.18.57.62,1.35.96,2.19.96h44.58c1.62,0,2.94-1.32,2.94-2.94v-32.07c-.06,0-.12,0-.18,0-12.44-.61-24.64-2.23-36.26-4.82Z"/>
    </clipPath>
    <clipPath id="clippath-9">
      <path class="cls-2" d="M197.05,421.79c1.62,0,2.94-1.32,2.94-2.94v-31.65c0-1.62-1.32-2.94-2.94-2.94h-47.85c.12,10.88,2.08,21.3,5.81,30.97,1.52,3.93,5.38,6.57,9.61,6.57h32.43Z"/>
    </clipPath>
    <clipPath id="clippath-10">
      <path class="cls-2" d="M163.56,338.53c-.21-.05-.43-.07-.64-.07-1.03,0-2.01.55-2.55,1.47-6,10.26-9.75,22.47-10.83,35.3-.07.8.2,1.58.75,2.18.57.62,1.35.96,2.19.96h44.58c1.62,0,2.94-1.32,2.94-2.94v-32.07c-.06,0-.12,0-.18,0-12.44-.61-24.64-2.23-36.26-4.82Z"/>
    </clipPath>
    <clipPath id="clippath-11">
      <path class="cls-2" d="M197.05,421.79c1.62,0,2.94-1.32,2.94-2.94v-31.65c0-1.62-1.32-2.94-2.94-2.94h-47.85c.12,10.88,2.08,21.3,5.81,30.97,1.52,3.93,5.38,6.57,9.61,6.57h32.43Z"/>
    </clipPath>
    <clipPath id="clippath-12">
      <path class="cls-2" d="M255.55,377.42c.57-.63.85-1.44.78-2.29-.99-11.66-4.23-22.91-9.35-32.54-.59-1.11-1.83-1.73-3.07-1.53-12.19,1.96-24.96,2.8-38.03,2.5v31.86c0,1.62,1.32,2.94,2.94,2.94h44.57c.83,0,1.59-.34,2.15-.95Z"/>
    </clipPath>
    <clipPath id="clippath-13">
      <path class="cls-2" d="M241.24,421.79c4.23,0,8.09-2.64,9.61-6.57,3.74-9.67,5.69-20.08,5.82-30.97h-47.84c-1.62,0-2.94,1.32-2.94,2.94v31.65c0,1.62,1.32,2.94,2.94,2.94h32.42Z"/>
    </clipPath>
    <clipPath id="clippath-14">
      <path class="cls-2" d="M241.24,421.79c4.23,0,8.09-2.64,9.61-6.57,3.74-9.67,5.69-20.08,5.82-30.97h-47.84c-1.62,0-2.94,1.32-2.94,2.94v31.65c0,1.62,1.32,2.94,2.94,2.94h32.42Z"/>
    </clipPath>
    <clipPath id="clippath-15">
      <path class="cls-2" d="M255.55,377.42c.57-.63.85-1.44.78-2.29-.99-11.66-4.23-22.91-9.35-32.54-.59-1.11-1.83-1.73-3.07-1.53-12.19,1.96-24.96,2.8-38.03,2.5v31.86c0,1.62,1.32,2.94,2.94,2.94h44.57c.83,0,1.59-.34,2.15-.95Z"/>
    </clipPath>
    <clipPath id="clippath-16">
      <path class="cls-2" d="M269.32,335.19c-5.04,1.67-10.3,3.12-15.77,4.33,6.21,11.99,9.91,26.31,10.1,41.7,2.46-.2,4.96-.3,7.49-.3,9.23,0,18.25,1.38,26.37,4.01.47-2.38.72-4.79.72-7.22,0-16.66-11.09-31.73-28.91-42.51Z"/>
    </clipPath>
    <clipPath id="clippath-17">
      <path class="cls-2" d="M90.53,200.76s0,0,0,0c.79-.58,1.68-.91,2.58-1.02.1-.71.18-1.33.24-1.83-2.02-2.88-8.05-10.61-15.9-12.7-9.83-2.62-12.44.12-14.35,2.11-2.47,2.58-9.05,10.98-11.69,15.05,5.28,3.54,19.56,11.3,28.59,14.6,1.52-5.71,4.99-12.12,10.54-16.22Z"/>
    </clipPath>
    <clipPath id="clippath-18">
      <path class="cls-2" d="M79.54,245.83c.47-3.5,1.95-6.66,3.93-8.62.24-1.68.33-4.98-1.97-7.17-.63-.58-1.12-1.29-1.51-2.12-1.92,1.03-4.27,2.44-7.23,4.34l-.07.04c-23.66,14.5-27.68,32.63-28.35,37.61,2.05.41,7.39.33,16.27-2.04,3.95-1.05,7.8-2.36,11.22-3.77,3.21-4.33,6.25-8.18,8.49-10.95-.86-2.16-1.14-4.65-.78-7.34Z"/>
    </clipPath>
    <clipPath id="clippath-19">
      <path class="cls-2" d="M82.58,273.54c.23-4.69,1.36-9.25,3.35-13.64-.13-.11-.25-.22-.38-.33-9.49,11.89-21.41,28.63-22.45,35.5l-.12.8-.2.31c-.19.64-.91,4.24,3.95,10.09,3.72,4.47,8.07,9.3,11.4,12.91,1.7-6.03,4.98-14.56,11.06-22.14-4.72-7.5-7-15.43-6.6-23.49Z"/>
    </clipPath>
    <clipPath id="clippath-20">
      <path class="cls-2" d="M140.72,332.79c-20.27,10.89-33.12,26.99-33.12,44.92,0,2.43.25,4.85.72,7.24,8.12-2.64,17.15-4.03,26.4-4.03,2.2,0,4.39.08,6.56.24.22-16.62,4.52-31.99,11.68-44.53-4.2-1.15-8.28-2.43-12.24-3.84Z"/>
    </clipPath>
    <clipPath id="clippath-21">
      <path class="cls-2" d="M140.72,332.79c-20.27,10.89-33.12,26.99-33.12,44.92,0,2.43.25,4.85.72,7.24,8.12-2.64,17.15-4.03,26.4-4.03,2.2,0,4.39.08,6.56.24.22-16.62,4.52-31.99,11.68-44.53-4.2-1.15-8.28-2.43-12.24-3.84Z"/>
    </clipPath>
    <clipPath id="clippath-22">
      <path class="cls-2" d="M140.03,405.92c-6.48,0-12.88.75-18.82,2.19,1.11,1.15,2.28,2.28,3.52,3.39,6.16,5.5,14.28,8.52,22.87,8.52h1.17c-1.92-4.47-3.48-9.16-4.68-14-1.35-.06-2.7-.11-4.06-.11Z"/>
    </clipPath>
    <clipPath id="clippath-23">
      <path class="cls-2" d="M134.72,389.01c-8.46,0-16.69,1.26-24.03,3.66,1.24,2.93,2.85,5.81,4.81,8.6,7.61-2.26,16.02-3.44,24.53-3.44.81,0,1.62.01,2.43.03-.44-2.82-.76-5.69-.95-8.58-2.24-.18-4.5-.28-6.78-.28Z"/>
    </clipPath>
  </defs>
  <g class="cls-51">
    <g>
      <g>
        <g>
          <g>
            <path class="cls-3" d="M195.64,424.8c-12.71,0-25.24-3.36-36.25-9.71l-119.64-69.08c-22.36-12.91-36.25-36.97-36.25-62.79v-138.15c0-25.82,13.89-49.88,36.25-62.79L159.39,13.21c11.01-6.35,23.54-9.71,36.25-9.71s25.24,3.36,36.25,9.71l119.64,69.08c22.36,12.91,36.25,36.97,36.25,62.79v138.15c0,25.82-13.89,49.88-36.25,62.79l-119.64,69.08c-11.01,6.35-23.54,9.71-36.25,9.71Z"/>
            <path class="cls-7" d="M195.64,7c12.1,0,24.03,3.2,34.5,9.24l119.64,69.08c21.28,12.29,34.5,35.18,34.5,59.76v138.15c0,24.57-13.22,47.47-34.5,59.76l-119.64,69.08c-10.47,6.05-22.4,9.24-34.5,9.24s-24.03-3.2-34.5-9.24l-119.64-69.08c-21.28-12.29-34.5-35.18-34.5-59.76v-138.15c0-24.57,13.22-47.47,34.5-59.76L161.14,16.24c10.47-6.05,22.4-9.24,34.5-9.24M195.64,0c-13.12,0-26.24,3.39-38,10.18L38,79.26C14.49,92.83,0,117.92,0,145.08v138.15c0,27.15,14.49,52.24,38,65.82l119.64,69.08c11.76,6.79,24.88,10.18,38,10.18s26.24-3.39,38-10.18l119.64-69.08c23.51-13.58,38-38.67,38-65.82v-138.15c0-27.15-14.49-52.24-38-65.82L233.64,10.18c-11.76-6.79-24.88-10.18-38-10.18h0Z"/>
            <path class="cls-12" d="M195.64,4c12.62,0,25.07,3.34,36,9.65l119.64,69.08c22.21,12.82,36,36.71,36,62.35v138.15c0,25.64-13.79,49.53-36,62.35l-119.64,69.08c-10.93,6.31-23.38,9.65-36,9.65s-25.07-3.34-36-9.65l-119.64-69.08c-22.21-12.82-36-36.71-36-62.35v-138.15c0-25.64,13.79-49.53,36-62.35L159.64,13.65c10.93-6.31,23.38-9.65,36-9.65M195.64,0C182.52,0,169.4,3.39,157.64,10.18L38,79.26C14.49,92.83,0,117.92,0,145.08v138.15c0,27.15,14.49,52.24,38,65.82l119.64,69.08c11.76,6.79,24.88,10.18,38,10.18s26.24-3.39,38-10.18l119.64-69.08c23.51-13.58,38-38.67,38-65.82v-138.15c0-27.15-14.49-52.24-38-65.82L233.64,10.18C221.89,3.39,208.76,0,195.64,0h0Z"/>
          </g>
          <g>
            <circle class="cls-22" cx="194.12" cy="208.47" r="102.87"/>
            <circle class="cls-21" cx="197.16" cy="215.3" r="102.87"/>
            <path class="cls-19" d="M286.51,164.27c-18.64-26.29-49.31-43.44-83.99-43.44-56.82,0-102.87,46.06-102.87,102.87,0,18.56,4.91,35.96,13.51,51-11.89-16.78-18.88-37.28-18.88-59.4,0-56.82,46.06-102.87,102.88-102.87,38.24,0,71.61,20.87,89.34,51.84Z"/>
            <circle class="cls-6" cx="197.16" cy="215.3" r="79.08"/>
            <path class="cls-14" d="M124.08,245.55c14.17,21.31,38.39,35.35,65.89,35.35,43.68,0,79.08-35.4,79.08-79.07,0-10.72-2.13-20.93-6-30.26,8.34,12.53,13.2,27.57,13.2,43.76,0,43.67-35.41,79.08-79.09,79.08-32.97,0-61.21-20.17-73.09-48.85Z"/>
            <path class="cls-20" d="M270.25,185.07c-14.17-21.31-38.39-35.35-65.89-35.35-43.68,0-79.08,35.4-79.08,79.07,0,10.72,2.13,20.93,6,30.26-8.34-12.53-13.2-27.57-13.2-43.76,0-43.67,35.41-79.08,79.09-79.08,32.97,0,61.21,20.17,73.09,48.85Z"/>
          </g>
        </g>
        <g>
          <path class="cls-23" d="M195.64,7c12.1,0,24.03,3.2,34.5,9.24l119.64,69.08c21.28,12.29,34.5,35.18,34.5,59.76v138.15c0,24.57-13.22,47.47-34.5,59.76l-119.64,69.08c-10.47,6.05-22.4,9.24-34.5,9.24s-24.02-3.2-34.5-9.24l-119.64-69.08c-21.28-12.29-34.5-35.18-34.5-59.76v-138.15c0-24.57,13.22-47.47,34.5-59.76L161.14,16.24c10.47-6.05,22.4-9.24,34.5-9.24M195.64,0C182.52,0,169.4,3.39,157.64,10.18L38,79.26C14.49,92.83,0,117.92,0,145.08v138.15C0,310.38,14.49,335.47,38,349.04l119.64,69.08c11.76,6.79,24.88,10.18,38,10.18s26.24-3.39,38-10.18l119.64-69.08c23.51-13.58,38-38.67,38-65.82v-138.15c0-27.15-14.49-52.24-38-65.82L233.64,10.18C221.89,3.39,208.76,0,195.64,0h0Z"/>
          <path class="cls-5" d="M195.64,4c12.62,0,25.07,3.34,36,9.65l119.64,69.08c22.21,12.82,36,36.71,36,62.35v138.15c0,25.64-13.79,49.53-36,62.35l-119.64,69.08c-10.93,6.31-23.38,9.65-36,9.65s-25.07-3.34-36-9.65l-119.64-69.08c-22.21-12.82-36-36.71-36-62.35v-138.15c0-25.64,13.79-49.53,36-62.35L159.64,13.65c10.93-6.31,23.38-9.65,36-9.65M195.64,0C182.52,0,169.4,3.39,157.64,10.18L38,79.26C14.49,92.83,0,117.92,0,145.08v138.15C0,310.38,14.49,335.47,38,349.04l119.64,69.08c11.76,6.79,24.88,10.18,38,10.18s26.24-3.39,38-10.18l119.64-69.08c23.51-13.58,38-38.67,38-65.82v-138.15c0-27.15-14.49-52.24-38-65.82L233.64,10.18C221.89,3.39,208.76,0,195.64,0h0Z"/>
        </g>
      </g>
      <path class="cls-4" d="M391.27,145.08v138.15c0,27.15-14.49,52.24-38,65.82l-119.65,69.07c-11.75,6.79-24.88,10.18-38,10.18s-26.24-3.39-38-10.18l-119.48-68.97L324.59,62.7l28.68,16.56c23.51,13.57,38,38.66,38,65.82Z"/>
    </g>
    <g class="cls-1">
      <g>
        <g>
          <g>
            <rect class="cls-24" x="287.07" y="341.71" width="33.39" height="8.82" rx="3.23" ry="3.23" transform="translate(341.71 -112.83) rotate(46)"/>
            <path class="cls-9" d="M312.29,361.68s-.08,0-.11,0c-1.7-.03-3.29-.72-4.48-1.95l-17.4-18.02c-1.18-1.22-1.82-2.84-1.79-4.54.03-1.7.72-3.29,1.95-4.48l.35-.34c2.53-2.44,6.58-2.37,9.02.16l17.4,18.02c2.44,2.53,2.37,6.57-.16,9.02l-.35.34c-1.2,1.16-2.76,1.79-4.43,1.79ZM295.24,334.99c-.49,0-.98.18-1.36.55l-.35.34c-.38.37-.59.85-.6,1.38,0,.52.19,1.02.55,1.4l17.4,18.02c.36.38.85.59,1.38.6.56,0,1.02-.19,1.4-.55l.35-.34c.78-.75.8-2,.05-2.77l-17.4-18.02c-.38-.4-.9-.6-1.41-.6Z"/>
          </g>
          <g>
            <rect class="cls-24" x="315.06" y="300.08" width="19.82" height="50.54" transform="translate(333.24 -134.42) rotate(46)"/>
            <path class="cls-9" d="M313.62,353.15l-16.83-17.43,39.53-38.18,16.83,17.43-39.53,38.18ZM303.02,335.83l10.7,11.08,33.18-32.04-10.7-11.08-33.18,32.04Z"/>
          </g>
          <g>
            <rect class="cls-24" x="283.51" y="346.05" width="19.82" height="19.53" transform="translate(345.52 -102.42) rotate(46)"/>
            <path class="cls-9" d="M293.22,372.85l-16.83-17.43,17.23-16.64,16.83,17.43-17.23,16.64ZM282.63,355.53l10.7,11.08,10.87-10.5-10.7-11.08-10.87,10.5Z"/>
          </g>
          <g>
            <path class="cls-24" d="M341.32,301.52h8.96c3,0,5.43,2.43,5.43,5.43v1.98h-19.82v-1.98c0-3,2.43-5.43,5.43-5.43Z" transform="translate(325.12 -155.55) rotate(46)"/>
            <path class="cls-9" d="M349.97,318.04l-16.83-17.43,3.26-3.14c1.4-1.35,3.21-2.08,5.19-2.05,1.95.03,3.77.82,5.12,2.23l6.7,6.94c2.79,2.89,2.71,7.52-.18,10.31l-3.26,3.14ZM339.38,300.72l10.7,11.08.08-.08c1.14-1.1,1.17-2.93.07-4.07l-6.7-6.94c-.53-.55-1.25-.87-2.02-.88-.73-.03-1.5.27-2.05.81l-.08.08Z"/>
          </g>
          <g>
            <line class="cls-11" x1="343.14" y1="307.79" x2="306.79" y2="342.9"/>
            <rect class="cls-9" x="299.69" y="323.14" width="50.54" height="4.41" transform="translate(-134.8 317.08) rotate(-44)"/>
          </g>
          <g>
            <line class="cls-11" x1="332.16" y1="304.67" x2="345.92" y2="318.92"/>
            <rect class="cls-9" x="336.83" y="301.89" width="4.41" height="19.82" transform="translate(-121.44 323.05) rotate(-44)"/>
          </g>
          <g>
            <line class="cls-11" x1="327.61" y1="309.06" x2="341.37" y2="323.32"/>
            <rect class="cls-9" x="332.28" y="306.28" width="4.41" height="19.82" transform="translate(-125.76 321.13) rotate(-44)"/>
          </g>
          <g>
            <line class="cls-11" x1="322.97" y1="313.54" x2="336.74" y2="327.8"/>
            <rect class="cls-9" x="327.65" y="310.76" width="4.41" height="19.82" transform="translate(-130.18 319.16) rotate(-44)"/>
          </g>
          <g>
            <line class="cls-11" x1="318.33" y1="318.02" x2="332.1" y2="332.27"/>
            <rect class="cls-9" x="323.01" y="315.24" width="4.41" height="19.82" transform="translate(-134.59 317.18) rotate(-44)"/>
          </g>
          <g>
            <line class="cls-11" x1="313.69" y1="322.5" x2="327.46" y2="336.75"/>
            <rect class="cls-9" x="318.37" y="319.72" width="4.41" height="19.82" transform="translate(-139 315.22) rotate(-44)"/>
          </g>
          <g>
            <line class="cls-11" x1="309.06" y1="326.98" x2="322.82" y2="341.23"/>
            <rect class="cls-9" x="313.73" y="324.19" width="4.41" height="19.82" transform="translate(-143.42 313.26) rotate(-44)"/>
          </g>
          <g>
            <line class="cls-11" x1="304.42" y1="331.45" x2="318.19" y2="345.71"/>
            <rect class="cls-9" x="309.1" y="328.67" width="4.41" height="19.82" transform="translate(-147.83 311.29) rotate(-44)"/>
          </g>
        </g>
        <g>
          <g>
            <rect class="cls-24" x="86.54" y="341.71" width="33.39" height="8.82" rx="3.23" ry="3.23" transform="translate(423.92 512.31) rotate(134)"/>
            <path class="cls-9" d="M94.71,361.67c-1.6,0-3.19-.59-4.43-1.79l-.35-.34c-1.23-1.18-1.92-2.77-1.95-4.48-.03-1.7.61-3.32,1.79-4.54l17.4-18.02c1.18-1.23,2.77-1.92,4.48-1.95,1.68-.01,3.31.61,4.54,1.79l.35.34c2.53,2.44,2.6,6.49.16,9.02l-17.4,18.02c-1.25,1.29-2.92,1.94-4.59,1.94ZM111.76,334.98s-.02,0-.04,0c-.52,0-1.01.22-1.38.6l-17.4,18.02c-.36.38-.56.87-.55,1.4s.22,1.01.6,1.38l.35.34c.78.75,2.02.73,2.78-.05l17.4-18.02c.75-.78.73-2.02-.05-2.77l-.35-.34c-.37-.36-.85-.55-1.36-.55Z"/>
          </g>
          <g>
            <rect class="cls-24" x="72.13" y="300.08" width="19.82" height="50.54" transform="translate(373.05 492.35) rotate(134)"/>
            <path class="cls-9" d="M93.39,353.15l-39.53-38.18,16.83-17.43,39.53,38.18-16.83,17.43ZM60.1,314.86l33.18,32.04,10.7-11.08-33.18-32.04-10.7,11.08Z"/>
          </g>
          <g>
            <rect class="cls-24" x="103.68" y="346.05" width="19.82" height="19.53" transform="translate(448.44 521.3) rotate(134)"/>
            <path class="cls-9" d="M113.78,372.85l-17.23-16.64,16.83-17.43,17.23,16.64-16.83,17.43ZM102.8,356.11l10.87,10.5,10.7-11.08-10.87-10.5-10.7,11.08Z"/>
          </g>
          <g>
            <path class="cls-24" d="M51.29,301.52h19.82v1.98c0,3-2.43,5.43-5.43,5.43h-8.96c-3,0-5.43-2.43-5.43-5.43v-1.98h0Z" transform="translate(323.26 473.23) rotate(134)"/>
            <path class="cls-9" d="M57.03,318.04l-3.25-3.14c-2.89-2.79-2.97-7.42-.18-10.31l6.7-6.94c1.35-1.4,3.17-2.19,5.12-2.23,1.95-.03,3.79.69,5.19,2.05l3.26,3.14-16.83,17.43ZM65.54,299.83s-.03,0-.05,0c-.77.01-1.49.33-2.02.88l-6.7,6.94c-1.1,1.14-1.07,2.97.07,4.07l.08.08,10.7-11.08-.08-.08c-.54-.52-1.25-.81-2-.81Z"/>
          </g>
          <line class="cls-25" x1="63.86" y1="307.79" x2="100.21" y2="342.9"/>
          <line class="cls-25" x1="74.85" y1="304.67" x2="61.08" y2="318.92"/>
          <line class="cls-25" x1="79.4" y1="309.06" x2="65.63" y2="323.32"/>
          <line class="cls-25" x1="84.03" y1="313.54" x2="70.27" y2="327.8"/>
          <line class="cls-25" x1="88.67" y1="318.02" x2="74.9" y2="332.27"/>
          <line class="cls-25" x1="93.31" y1="322.5" x2="79.54" y2="336.75"/>
          <line class="cls-25" x1="97.95" y1="326.98" x2="84.18" y2="341.23"/>
          <line class="cls-25" x1="102.58" y1="331.45" x2="88.82" y2="345.71"/>
        </g>
        <g>
          <path class="cls-15" d="M120.27,337.04c3.08-2.65,6.49-5.18,10.21-7.55.23-.15.47-.28.71-.43-.96-.41-1.91-.84-2.86-1.27-3.3,2.1-6.08,5.31-8.05,9.24Z"/>
          <path class="cls-15" d="M280.92,330.76c-.74.32-1.48.65-2.23.96,2.3,1.61,4.46,3.27,6.49,5-1.17-2.26-2.61-4.27-4.26-5.96Z"/>
          <path class="cls-10" d="M140.03,405.92c-6.48,0-12.88.75-18.82,2.19,1.11,1.15,2.28,2.28,3.52,3.39,6.16,5.5,14.28,8.52,22.87,8.52h1.17c-1.92-4.47-3.48-9.16-4.68-14-1.35-.06-2.7-.11-4.06-.11Z"/>
          <path class="cls-10" d="M260.82,406.09c-1.19,4.82-2.75,9.48-4.66,13.94h2.08c8.58,0,16.7-3.03,22.87-8.52,1.25-1.11,2.42-2.25,3.53-3.4-5.94-1.44-12.34-2.19-18.79-2.19-1.68,0-3.35.07-5.02.17Z"/>
          <path class="cls-10" d="M140.72,332.79c-20.27,10.89-33.12,26.99-33.12,44.92,0,2.43.25,4.85.72,7.24,8.12-2.64,17.15-4.03,26.4-4.03,2.2,0,4.39.08,6.56.24.22-16.62,4.52-31.99,11.68-44.53-4.2-1.15-8.28-2.43-12.24-3.84Z"/>
          <path class="cls-10" d="M269.32,335.19c-5.04,1.67-10.3,3.12-15.77,4.33,6.21,11.99,9.91,26.31,10.1,41.7,2.46-.2,4.96-.3,7.49-.3,9.23,0,18.25,1.38,26.37,4.01.47-2.38.72-4.79.72-7.22,0-16.66-11.09-31.73-28.91-42.51Z"/>
          <path class="cls-17" d="M134.72,389.01c-8.46,0-16.69,1.26-24.03,3.66,1.24,2.93,2.85,5.81,4.81,8.6,7.61-2.26,16.02-3.44,24.53-3.44.81,0,1.62.01,2.43.03-.44-2.82-.76-5.69-.95-8.58-2.24-.18-4.5-.28-6.78-.28Z"/>
          <path class="cls-17" d="M263.42,389.37c-.2,2.87-.51,5.72-.95,8.52,1.12-.04,2.24-.07,3.37-.07,8.48,0,16.88,1.18,24.49,3.43,1.96-2.79,3.57-5.67,4.81-8.6-7.35-2.4-15.56-3.65-24-3.65-2.6,0-5.18.12-7.72.36Z"/>
          <path class="cls-8" d="M142.21,382.49c0-17.03,4.29-32.81,11.56-45.64-.27-.07-.54-.15-.81-.23-7.15,12.54-11.46,27.91-11.68,44.53,0,.44-.01.89-.01,1.34,0,2.28.09,4.55.24,6.8.19,2.89.51,5.75.95,8.58.43,2.76.98,5.49,1.64,8.17,1.19,4.84,2.76,9.53,4.68,14,.87,2.02,1.8,4,2.81,5.92l1.14,2.17h.94l-1.14-2.17c-6.74-12.86-10.31-27.89-10.31-43.47Z"/>
          <path class="cls-24" d="M90.53,200.76s0,0,0,0c.79-.58,1.68-.91,2.58-1.02.1-.71.18-1.33.24-1.83-2.02-2.88-8.05-10.61-15.9-12.7-9.83-2.62-12.44.12-14.35,2.11-2.47,2.58-9.05,10.98-11.69,15.05,5.28,3.54,19.56,11.3,28.59,14.6,1.52-5.71,4.99-12.12,10.54-16.22Z"/>
          <path class="cls-24" d="M79.54,245.83c.47-3.5,1.95-6.66,3.93-8.62.24-1.68.33-4.98-1.97-7.17-.63-.58-1.12-1.29-1.51-2.12-1.92,1.03-4.27,2.44-7.23,4.34l-.07.04c-23.66,14.5-27.68,32.63-28.35,37.61,2.05.41,7.39.33,16.27-2.04,3.95-1.05,7.8-2.36,11.22-3.77,3.21-4.33,6.25-8.18,8.49-10.95-.86-2.16-1.14-4.65-.78-7.34Z"/>
          <path class="cls-24" d="M82.58,273.54c.23-4.69,1.36-9.25,3.35-13.64-.13-.11-.25-.22-.38-.33-9.49,11.89-21.41,28.63-22.45,35.5l-.12.8-.2.31c-.19.64-.91,4.24,3.95,10.09,3.72,4.47,8.07,9.3,11.4,12.91,1.7-6.03,4.98-14.56,11.06-22.14-4.72-7.5-7-15.43-6.6-23.49Z"/>
          <path class="cls-10" d="M109.86,199.94c15.5-11.08,45.76-19.49,65.56,2.74l.12.14c8.08,9.96,9.09,10.01,12.43,10.16,4.78.21,27.85,0,28.08,0h.25s.25.03.25.03c.21.02,6.32.5,10.76-5.62,7.64-10.54,29.07-27.31,55.45-15.32,5.83,2.65,10.27,4.73,13.51,6.25,7.24,3.4,9.26,4.34,11.62,4.51-10.3-45.12-49.62-79.87-98.06-82.26-1.76-.09-3.51-.13-5.26-.13-50.04,0-92.79,35.2-103.36,83.01,2.91.17,6.42-1.91,8.66-3.51Z"/>
          <path class="cls-10" d="M246.1,279.7c-5.2-.81-9.92-1.6-14.07-2.29-23.75-3.94-33.58-5.58-54.36-.19-10.2,2.65-22.36,4.81-34.81,4.81-14.45,0-29.29-2.92-41.91-11.42l-.09-.06c-.37-.26-1.12-.75-1.99-1.31-1.63-1.05-3.87-2.5-6.31-4.22-1.11,2.91-1.75,5.88-1.9,8.91-.72,14.54,9.83,28.97,29.7,40.64,20.68,12.14,48.68,19.65,78.86,21.14,30.18,1.48,58.79-3.24,80.56-13.29,20.92-9.66,32.83-22.99,33.55-37.53.26-5.32-.99-10.64-3.71-15.86-13.8,6.69-36.22,14.94-63.52,10.67Z"/>
          <path class="cls-24" d="M316.61,228.97c.57-1.75,1.1-3.4,1.42-5.02.69-5.49.02-9.46-1.96-11.47-1.76-1.79-4.3-1.64-4.33-1.64l-.21.02c-6.81.37-7.49.06-18.7-5.21-3.4-1.6-7.63-3.58-13.42-6.21-9.76-4.44-19.53-4.54-29.04-.32-7.68,3.41-13.56,8.96-16.5,13.03-6.66,9.19-16.02,9.07-17.91,8.94-2.33.02-23.52.21-28.35,0-6.69-.3-9.61-2.38-18.29-13.07-7.34-8.2-16.95-11.91-28.55-11.02-9,.69-18.79,4.26-26.19,9.55-10.81,7.72-17.63,4.99-20.99,2.26-5.2,5.16-6.91,13.37-6.28,15.59,6.56,6.48,3.84,15.83,3.72,16.23l-.47,1.55-1.36.77c-.44.36-1.53,2.21-1.68,4.62-.06.95,0,2.7,1.06,3.76,4.61,4.61,11.18,8.85,14.71,11.13,1,.65,1.73,1.12,2.25,1.49,11.59,7.79,33.16,15.05,70.12,5.46,22.44-5.82,33.5-3.99,57.72.04,4.14.69,8.83,1.47,14,2.28,31.72,4.96,56.72-8.65,67.39-14.47l1.51-.82c1.78-.96,2.81-2.11,3.15-3.52.64-2.67-1.07-6.05-1.89-7.31-4.54-5.46-2.53-11.65-.91-16.63ZM174.25,241.55c-.03.17-.06.33-.1.5-.03.11-.05.22-.08.33-.13.55-.29,1.1-.47,1.64-.01.04-.02.07-.03.11-.09.25-.18.51-.28.76-.04.11-.09.23-.13.34-.1.25-.21.49-.32.74-.04.08-.07.15-.11.23-1.98,4.22-5.44,7.99-9.99,10.7-4.82,2.87-10.37,4.31-16.21,4.31s-11.56-1.34-17.4-4.02c-19.73-9.08-17.58-31.9-13.68-42.73.35-1.02,3.09-8.29,10.89-11.64,6.7-2.88,14.88-2.02,24.32,2.54,15.84,7.65,21.29,18.26,23.11,25.6,1.02,3.5,1.19,7.15.49,10.6ZM277.72,262.5c-4.79,1.65-9.55,2.47-14.1,2.47-7.2,0-13.88-2.04-19.32-6.05-2.88-2.12-5.22-4.68-6.91-7.46-5.71-8.07-4.54-19.29,2.39-27.04,3.87-5.6,10.43-11.51,21.6-15.61,9.84-3.61,18.07-3.66,24.45-.14,7.43,4.1,9.45,11.6,9.7,12.65,2.82,11.16,2.71,34.08-17.81,41.18Z"/>
          <path class="cls-9" d="M324.06,240.83l-.25-.32c-1.62-1.87-1.12-4.08.49-9.05.63-1.95,1.29-3.98,1.69-6.15l.04-.22c1.06-8.22-.35-14.37-4.19-18.28-1.78-1.81-3.77-2.83-5.56-3.39-10.22-49.73-53.08-88.32-106.07-90.93-51.77-2.55-97.28,30.03-113.39,76.72-3.71-4.29-9.7-9.8-17.29-11.82-12.73-3.39-18.41.29-22.28,4.34-1.66,1.74-5.33,6.23-8.35,10.23-6.48,8.58-6.76,10.33-6.44,12.18.26,1.52.66,3.83,19.06,13.32,3.45,1.78,7.38,3.69,11.21,5.3-1.33.79-2.75,1.67-4.31,2.67-30.97,18.99-32.26,44.39-32.3,45.46v.12s0,.12,0,.12c.05,2.55,1.52,4.69,4.01,5.87,1.82.86,4.21,1.19,6.83,1.19,5.51,0,12.02-1.48,16.21-2.62.28-.08.55-.15.82-.23-4.35,6.72-7.94,13.35-8.82,18.04-.78,2.21-2.19,9.02,5.33,18.06,7.28,8.76,16.62,18.51,17.02,18.93l5.91,6.16,1.03-8.48c.02-.14,1.68-13.14,9.74-24.27,5.52,6.4,12.92,12.4,22.07,17.77,1.32.77,2.67,1.53,4.04,2.27-6.51,5.88-10.84,15.04-11.25,25.4-6.25,8.79-9.54,18.45-9.54,28.49,0,3.42.4,6.8,1.15,10.12l-.14.06.92,2.92.21.66c.06.2.14.4.2.59.16.48.32.96.49,1.44.1.28.21.55.32.82.18.46.35.92.54,1.38.15.36.32.71.47,1.06.17.37.33.74.5,1.11.35.73.71,1.45,1.1,2.18.04.07.08.15.12.22.35.64.71,1.28,1.09,1.91.06.09.11.19.17.28.38.63.77,1.25,1.17,1.87.05.08.11.16.16.24.45.68.91,1.35,1.4,2.02.19.27.4.53.59.79.28.37.55.74.83,1.11l.17.22,1.6,2.05.06-.02c2.02,2.34,4.25,4.62,6.71,6.81,7.65,6.82,17.68,10.58,28.25,10.58h5.12l-1.14-2.17c-1.01-1.93-1.94-3.91-2.81-5.92h-1.17c-8.58,0-16.7-3.03-22.87-8.52-1.24-1.11-2.41-2.24-3.52-3.39,5.94-1.44,12.34-2.19,18.82-2.19,1.37,0,2.72.04,4.06.11-.66-2.68-1.21-5.41-1.64-8.17-.81-.02-1.62-.03-2.43-.03-8.5,0-16.92,1.19-24.53,3.44-1.96-2.79-3.57-5.67-4.81-8.6,7.34-2.4,15.57-3.66,24.03-3.66,2.28,0,4.55.09,6.78.28-.15-2.25-.24-4.52-.24-6.8,0-.45,0-.89.01-1.34-2.17-.15-4.36-.24-6.56-.24-9.25,0-18.29,1.39-26.4,4.03-.47-2.39-.72-4.8-.72-7.24,0-17.93,12.85-34.03,33.12-44.92,3.96,1.4,8.04,2.68,12.24,3.84.27.07.54.15.81.23-7.27,12.83-11.56,28.6-11.56,45.64,0,15.57,3.56,30.6,10.31,43.47l1.14,2.17h104.58c10.57,0,20.6-3.76,28.25-10.58,2.47-2.2,4.71-4.48,6.73-6.82l.06.02,1.51-1.92.26-.34c.12-.15.23-.31.35-.46.25-.33.51-.66.75-.99.11-.15.22-.3.33-.45.26-.36.52-.72.77-1.09.15-.21.28-.42.42-.63.2-.3.41-.61.61-.91.34-.53.67-1.06.99-1.59.02-.04.05-.07.07-.11.4-.67.78-1.35,1.15-2.03.02-.04.04-.07.06-.11,1.49-2.79,2.71-5.65,3.63-8.56,0-.03.02-.06.03-.09v-.03s.19-.57.19-.57l.94-2.99-.15-.06c.75-3.31,1.15-6.68,1.15-10.1,0-10.16-3.38-19.94-9.78-28.82-.4-8.44-3.41-16.07-8.08-21.75,20.49-10.81,32.13-25.52,32.94-41.86.33-6.79-1.22-13.48-4.6-19.96.63-.34,1.24-.67,1.8-.98l1.48-.8c4.84-2.61,6.58-6.23,7.19-8.81,1.6-6.78-2.73-13.2-3.23-13.91ZM204.56,120.44c1.74,0,3.5.04,5.26.13,48.44,2.39,87.76,37.13,98.06,82.26-2.35-.17-4.38-1.11-11.62-4.51-3.24-1.52-7.68-3.6-13.51-6.25-26.38-11.99-47.8,4.78-55.45,15.32-4.44,6.12-10.54,5.64-10.76,5.62l-.25-.03h-.25c-.23,0-23.3.22-28.08,0-3.34-.15-4.35-.2-12.43-10.16l-.12-.14c-19.8-22.23-50.05-13.81-65.56-2.74-2.24,1.6-5.75,3.68-8.66,3.51,10.57-47.81,53.32-83.01,103.36-83.01ZM51.41,202.38c2.63-4.07,9.22-12.47,11.69-15.05,1.91-2,4.53-4.73,14.35-2.11,7.85,2.09,13.89,9.82,15.9,12.7-.06.5-.14,1.12-.24,1.83-.9.1-1.79.43-2.58,1.02t0,0c-5.55,4.1-9.02,10.51-10.54,16.22-9.02-3.3-23.3-11.06-28.59-14.6ZM60.6,267.88c-8.88,2.37-14.22,2.44-16.27,2.04.67-4.99,4.69-23.12,28.35-37.61l.07-.04c2.97-1.9,5.32-3.31,7.23-4.34.38.83.88,1.54,1.51,2.12,2.31,2.18,2.21,5.49,1.97,7.17-1.98,1.96-3.45,5.12-3.93,8.62-.36,2.68-.08,5.18.78,7.34-2.24,2.77-5.28,6.62-8.49,10.95-3.43,1.41-7.28,2.71-11.22,3.77ZM78.12,319.17c-3.32-3.6-7.68-8.44-11.4-12.91-4.87-5.85-4.14-9.45-3.95-10.09l.2-.31.12-.8c1.04-6.87,12.96-23.62,22.45-35.5.13.11.25.22.38.33-1.99,4.39-3.12,8.95-3.35,13.64-.4,8.06,1.88,15.99,6.6,23.49-6.08,7.59-9.35,16.11-11.06,22.14ZM130.48,329.49c-3.72,2.37-7.12,4.89-10.21,7.55,1.97-3.93,4.76-7.14,8.05-9.24.94.43,1.9.85,2.86,1.27-.23.15-.48.28-.71.43ZM155.02,415.22c-3.74-9.67-5.69-20.08-5.81-30.97h47.85c1.62,0,2.94,1.32,2.94,2.94v31.65c0,1.62-1.32,2.94-2.94,2.94h-32.43c-4.23,0-8.09-2.64-9.61-6.57ZM205.88,375.42v-31.86c13.06.29,25.84-.55,38.03-2.5,1.24-.2,2.48.41,3.07,1.53,5.12,9.63,8.35,20.89,9.35,32.54.07.85-.2,1.67-.78,2.29-.56.61-1.33.95-2.15.95h-44.57c-1.62,0-2.94-1.32-2.94-2.94ZM200,375.42c0,1.62-1.32,2.94-2.94,2.94h-44.58c-.84,0-1.62-.34-2.19-.96-.55-.6-.82-1.38-.75-2.18,1.08-12.83,4.83-25.03,10.83-35.3.54-.93,1.52-1.47,2.55-1.47.21,0,.43.02.64.07,11.62,2.58,23.82,4.2,36.26,4.82.06,0,.12,0,.18,0v32.07ZM205.88,418.84v-31.65c0-1.62,1.32-2.94,2.94-2.94h47.84c-.12,10.89-2.08,21.3-5.82,30.97-1.52,3.93-5.38,6.57-9.61,6.57h-32.42c-1.62,0-2.94-1.32-2.94-2.94ZM281.1,411.51c-6.16,5.5-14.28,8.52-22.87,8.52h-2.08c1.91-4.46,3.47-9.12,4.66-13.94,1.66-.1,3.33-.17,5.02-.17,6.46,0,12.85.75,18.79,2.19-1.11,1.15-2.28,2.29-3.53,3.4ZM290.33,401.26c-7.61-2.25-16.02-3.43-24.49-3.43-1.13,0-2.25.02-3.37.07.44-2.81.76-5.65.95-8.52,2.55-.24,5.13-.36,7.72-.36,8.44,0,16.65,1.26,24,3.65-1.24,2.93-2.85,5.8-4.81,8.6ZM298.23,377.71c0,2.43-.25,4.84-.72,7.22-8.12-2.63-17.14-4.01-26.37-4.01-2.53,0-5.03.1-7.49.3-.19-15.39-3.88-29.7-10.1-41.7,5.47-1.21,10.73-2.66,15.77-4.33,17.82,10.79,28.91,25.86,28.91,42.51ZM278.69,331.72c.75-.31,1.49-.64,2.23-.96,1.65,1.69,3.09,3.7,4.26,5.96-2.03-1.72-4.19-3.39-6.49-5ZM313.33,284.89c-.72,14.54-12.63,27.87-33.55,37.53-21.77,10.06-50.38,14.77-80.56,13.29-30.18-1.49-58.18-8.99-78.86-21.14-19.87-11.67-30.42-26.1-29.7-40.64.15-3.03.79-6,1.9-8.91,2.44,1.72,4.67,3.17,6.31,4.22.87.56,1.62,1.05,1.99,1.31l.09.06c12.62,8.5,27.46,11.42,41.91,11.42,12.45,0,24.61-2.17,34.81-4.81,20.78-5.39,30.61-3.76,54.36.19,4.16.69,8.87,1.47,14.07,2.29,27.3,4.27,49.71-3.98,63.52-10.67,2.72,5.22,3.98,10.53,3.71,15.86ZM319.41,252.9c-.34,1.41-1.37,2.56-3.15,3.52l-1.51.82c-10.67,5.81-35.67,19.42-67.39,14.47-5.17-.81-9.86-1.59-14-2.28-24.22-4.02-35.27-5.86-57.72-.04-36.96,9.59-58.53,2.33-70.12-5.46-.52-.37-1.25-.84-2.25-1.49-3.53-2.28-10.1-6.53-14.71-11.13-1.06-1.06-1.12-2.81-1.06-3.76.15-2.42,1.25-4.26,1.68-4.62l1.36-.77.47-1.55c.12-.4,2.84-9.75-3.72-16.23-.63-2.22,1.08-10.44,6.28-15.59,3.36,2.73,10.18,5.46,20.99-2.26,7.41-5.29,17.2-8.86,26.19-9.55,11.61-.89,21.22,2.82,28.55,11.02,8.68,10.69,11.59,12.77,18.29,13.07,4.83.22,26.02.03,28.35,0,1.89.13,11.25.25,17.91-8.94,2.94-4.06,8.83-9.62,16.5-13.03,9.51-4.22,19.28-4.12,29.04.32,5.78,2.63,10.02,4.62,13.42,6.21,11.22,5.26,11.89,5.58,18.7,5.21l.21-.02s2.57-.15,4.33,1.64c1.97,2.01,2.65,5.98,1.96,11.47-.31,1.62-.85,3.27-1.42,5.02-1.62,4.98-3.62,11.17.91,16.63.82,1.25,2.53,4.64,1.89,7.31Z"/>
          <path class="cls-18" d="M287.65,223.13c-.04-.17-1.2-4.93-5.81-7.42-1.92-1.04-4.19-1.55-6.8-1.55-3.14,0-6.77.75-10.86,2.25-.41.15-.79.31-1.18.46,1.36.33,2.68.79,3.94,1.38-3.76.01-6.93,2.63-7.59,6.16-.06.33-.11.66-.13,1-.2,4.16,3.11,7.71,7.4,7.92,1.1.05,2.15-.12,3.12-.47,2.81-1.02,4.87-3.59,5.02-6.69.02-.5,0-.98-.08-1.45,6.51,9.2,4.09,22.51-5.64,30.08-.96.75-1.97,1.4-3,1.99,2.93-.23,5.97-.87,9.04-1.93,18.64-6.45,12.86-30.56,12.6-31.58l-.03-.14Z"/>
          <path class="cls-9" d="M285.84,208.67c-6.38-3.52-14.61-3.47-24.45.14-11.17,4.1-17.73,10.01-21.6,15.61-6.93,7.75-8.1,18.97-2.39,27.04,1.7,2.79,4.03,5.34,6.91,7.46,5.44,4.01,12.12,6.05,19.32,6.05,4.55,0,9.31-.82,14.1-2.47,20.53-7.1,20.63-30.02,17.81-41.18-.25-1.05-2.27-8.55-9.7-12.65ZM275.08,254.85c-3.07,1.06-6.11,1.7-9.04,1.93,1.03-.58,2.04-1.23,3-1.99,9.73-7.57,12.15-20.88,5.64-30.08.07.47.1.96.08,1.45-.15,3.1-2.21,5.66-5.02,6.69-.97.35-2.02.53-3.12.47-4.29-.21-7.6-3.76-7.4-7.92.02-.34.06-.67.13-1,.66-3.53,3.83-6.15,7.59-6.16-1.26-.59-2.58-1.05-3.94-1.38.39-.15.78-.31,1.18-.46,4.09-1.5,7.72-2.25,10.86-2.25,2.61,0,4.88.52,6.8,1.55,4.61,2.49,5.77,7.25,5.81,7.42l.03.14c.26,1.02,6.04,25.14-12.6,31.58Z"/>
          <path class="cls-18" d="M130.5,235.4c-.45-5.96,1.48-11.53,5.42-15.68.34-.36.7-.7,1.07-1.03-.86,2.45-.45,5.32,1.35,7.53.5.61,1.06,1.12,1.68,1.54,2.75,1.89,6.45,1.87,9.09-.28,1.81-1.47,2.73-3.64,2.72-5.84,0-1.73-.59-3.49-1.79-4.96-1.1-1.35-2.55-2.24-4.1-2.65.98-.22,1.99-.38,3.01-.46-.59-.31-1.2-.62-1.83-.93-4.68-2.26-8.82-3.4-12.36-3.4-1.89,0-3.61.32-5.15.97-4.83,2.02-6.46,6.65-6.52,6.85l-.04.11c-.35.99-8.47,24.42,9.44,32.66,2.38,1.09,4.76,1.91,7.11,2.46-.56-.44-1.1-.91-1.62-1.41-4.39-4.17-7.05-9.66-7.49-15.47Z"/>
          <path class="cls-9" d="M150.65,205.35c-9.44-4.56-17.62-5.41-24.32-2.54-7.8,3.35-10.54,10.62-10.89,11.64-3.9,10.83-6.05,33.65,13.68,42.73,5.83,2.68,11.76,4.02,17.4,4.02s11.38-1.44,16.21-4.31c4.55-2.71,8.01-6.48,9.99-10.7.04-.08.07-.15.11-.23.11-.24.22-.49.32-.74.05-.11.09-.23.13-.34.1-.25.19-.5.28-.76.01-.04.02-.07.03-.11.18-.54.34-1.09.47-1.64.03-.11.06-.22.08-.33.04-.17.07-.33.1-.5.7-3.45.53-7.1-.49-10.6-1.82-7.34-7.27-17.95-23.11-25.6ZM132.5,249.82c-17.92-8.25-9.8-31.68-9.44-32.66l.04-.11c.07-.2,1.69-4.83,6.52-6.85,1.54-.65,3.26-.97,5.15-.97,3.54,0,7.68,1.14,12.36,3.4.63.3,1.24.61,1.83.93-1.03.08-2.03.24-3.01.46,1.55.41,3,1.3,4.1,2.65,1.2,1.47,1.78,3.23,1.79,4.96,0,2.2-.92,4.37-2.72,5.84-2.64,2.15-6.34,2.17-9.09.28-.61-.42-1.18-.93-1.68-1.54-1.8-2.21-2.22-5.08-1.35-7.53-.37.33-.72.67-1.07,1.03-3.95,4.16-5.87,9.72-5.42,15.68.44,5.81,3.1,11.3,7.49,15.47.52.5,1.06.97,1.62,1.41-2.35-.55-4.73-1.37-7.11-2.46Z"/>
          <path class="cls-17" d="M163.56,338.53c-.21-.05-.43-.07-.64-.07-1.03,0-2.01.55-2.55,1.47-6,10.26-9.75,22.47-10.83,35.3-.07.8.2,1.58.75,2.18.57.62,1.35.96,2.19.96h44.58c1.62,0,2.94-1.32,2.94-2.94v-32.07c-.06,0-.12,0-.18,0-12.44-.61-24.64-2.23-36.26-4.82Z"/>
          <path class="cls-17" d="M255.55,377.42c.57-.63.85-1.44.78-2.29-.99-11.66-4.23-22.91-9.35-32.54-.59-1.11-1.83-1.73-3.07-1.53-12.19,1.96-24.96,2.8-38.03,2.5v31.86c0,1.62,1.32,2.94,2.94,2.94h44.57c.83,0,1.59-.34,2.15-.95Z"/>
          <path class="cls-17" d="M241.24,421.79c4.23,0,8.09-2.64,9.61-6.57,3.74-9.67,5.69-20.08,5.82-30.97h-47.84c-1.62,0-2.94,1.32-2.94,2.94v31.65c0,1.62,1.32,2.94,2.94,2.94h32.42Z"/>
          <path class="cls-17" d="M197.05,421.79c1.62,0,2.94-1.32,2.94-2.94v-31.65c0-1.62-1.32-2.94-2.94-2.94h-47.85c.12,10.88,2.08,21.3,5.81,30.97,1.52,3.93,5.38,6.57,9.61,6.57h32.43Z"/>
          <g class="cls-28">
            <path class="cls-18" d="M257.58,134.66s-104.59-41.04-147.72,65.28l-6.14,6.65-4.33-1.55,1.81-18.89,14.44-26.38,40.4-32.9,50.84-11.62,32.15,7.14,18.55,12.26Z"/>
          </g>
          <g class="cls-31">
            <path class="cls-18" d="M113.1,234.16s-3.78,18.03,13.81,25.41c17.59,7.38,35.82-2.67,35.82-2.67l-49.63-22.73Z"/>
          </g>
          <g class="cls-30">
            <path class="cls-18" d="M241.76,256.78s8.82,15.87,32.21,10.3c23.39-5.56,22.52-29.16,22.52-29.16l-54.73,18.86Z"/>
          </g>
          <g class="cls-29">
            <path class="cls-18" d="M90.84,212.21s7.21,6.54,15.56.87c8.35-5.67,20.82-14.32,29.37-14.01,8.55.31,20.82-2.47,35.79,13.33,4.4,5.08,8.11,9.21,17.66,9.34,9.55.14,26.93,0,28.3,0s9.69.21,16.69-8.18c7.01-8.38,21.98-18.27,36.41-15.6,14.63,3.02,18.21,8.82,28.24,11.69,10.03,2.87,12.57,1.7,13.88,1.91s3.01.23,4.67,3.03v-6.26l-25.1-5.87-26.28-9.69-25.66,5.15-13.71,12.88-5.98,4.23-39.88-1.96-13.09-14.53-29.88-5.77-27.31,9.89-16.39.82-3.29,8.71Z"/>
          </g>
          <g class="cls-35">
            <path class="cls-15" d="M261.22,136.87s26.89,23.2,25.16,56.85c-1.73,33.65,22.73,13.04,22.73,13.04v-17.31l-35.14-52.58h-12.75Z"/>
          </g>
          <g class="cls-34">
            <path class="cls-15" d="M265.3,280.79s12.75,3.55,34.19,0c0,0,5.16,20.92-29.09,33.69-34.25,12.78-109.61,18.64-159.7-13.98-12.44-9.63-16.76-8.28-16.76-8.28l16.49,22.05,48.85,19.46,57.5,5.68,50.29-6.64,37.92-22.68,14.57-29.32-6.18-15.82-37.47,10.36-10.59,5.46Z"/>
          </g>
          <g class="cls-32">
            <path class="cls-18" d="M96.8,267.9s-3.73,6.19,0,15.26c3.73,9.07-.83,15.66-.83,15.66l-8.81-17.31,2.02-18.69h6.95l.67,5.08Z"/>
          </g>
          <g class="cls-33">
            <path class="cls-18" d="M165.74,339s-12.04,21.63-8.33,39.37v2.9h-9.89v-20.2l11.54-22.61,3.5-2.47,3.18,3.02Z"/>
          </g>
          <g class="cls-36">
            <path class="cls-18" d="M199.81,386.18s-34.64-1.54-43.23,0c-8.59,1.54-1.57,29.04-1.57,29.04l-10.32-26.81,2.75-7.28h26.66l25.89,1.25-.18,3.81Z"/>
          </g>
          <g class="cls-44">
            <path class="cls-13" d="M202.89,350.35v-10.03l-41.63-5.12-6.05,4.16,4.3,2.08s24.95,9.04,40.49,8.91"/>
          </g>
          <g class="cls-49">
            <path class="cls-13" d="M150.4,384.25s-1.78,31.64,24.36,32.26c10.89,0,20.83-3.09,25.24-8.04h2v15.66h-45.82l-8.65-21.11-1.03-21.96,3.92,3.19Z"/>
          </g>
          <g class="cls-43">
            <path class="cls-18" d="M207.08,343.58s-1.99,30.51,3.78,34.78v2.21h-6.39v-38.4h2.68l-.07,1.41Z"/>
          </g>
          <g class="cls-42">
            <path class="cls-18" d="M206.01,386.32s37.79-2.16,50.65,0h2.34v-5.57l-53.99,1.13.99,4.44Z"/>
          </g>
          <g class="cls-41">
            <path class="cls-13" d="M205.88,408.47s5.82,7.54,25.39,7.14c19.57-.39,26.88-17.38,22.13-31.36v-2.23h5.89l-1,14.91-5.26,24.42-10.72,4.43h-36.44v-17.31Z"/>
          </g>
          <g class="cls-45">
            <path class="cls-13" d="M205.93,350.35s23.24.35,41.05-7.76v-5.86h-42.79l1.74,13.63Z"/>
          </g>
          <g class="cls-47">
            <polygon class="cls-15" points="257.07 347.26 272.58 337.27 272.58 330.76 253.55 333.74 247.82 336.63 257.07 347.26"/>
          </g>
          <g class="cls-46">
            <path class="cls-18" d="M52.75,203.24s3.14-1.25,8.75-9.95,20.18-3.71,28.11,0v-5.36l-17.94-7.32-16.18,6.49-7.32,16.13h4.58Z"/>
          </g>
          <g class="cls-50">
            <path class="cls-18" d="M81.49,230.04s-14.77,6.68-24.04,18.97c-9.27,12.3-9.41,21.06-9.41,21.06l-.9,2.78h-4.74v-11.65l15.87-25.03,22.05-12.37,1.17,6.24Z"/>
          </g>
          <g class="cls-48">
            <path class="cls-18" d="M83.58,266.65s-6.14,3.45-8.61,11.7-5.8,21.13-10.94,23.96c-5.14,2.83-4.86-5.14-4.86-5.14l11.27-23.2,10.72-15.83,4.81-2.47,3.16,7.83-5.54,3.14Z"/>
          </g>
          <g class="cls-37">
            <path class="cls-18" d="M141.83,333.18s-33.99,20.32-28.86,50.41v5.42h-9.16v-21.49l11.82-20.06,25.63-18.41.56,4.13Z"/>
          </g>
          <g class="cls-38">
            <polygon class="cls-15" points="130.28 339.34 146.02 352.33 156.17 341.02 157.82 335.19 142.46 329.94 134.64 333.45 130.28 339.34"/>
          </g>
          <g class="cls-40">
            <path class="cls-18" d="M123.64,407.57s4.3,6.52,12.03,10.41l-.68,4.4-17.46-12.68,2.89-4.64,3.22,2.51Z"/>
          </g>
          <g class="cls-39">
            <path class="cls-18" d="M110.69,392.67s21.02-4.72,26.52-2.41c5.5,2.31,5.25,7.6,5.25,7.6v-4.47l-.61-5.56-10.1-.24-23.56,2.51,2.51,2.58Z"/>
          </g>
        </g>
        <g>
          <path class="cls-16" d="M112.84,126.44c-2.62-5.93-7.39-10.7-13.32-13.32,5.93-2.62,10.7-7.39,13.32-13.32,2.62,5.93,7.39,10.7,13.32,13.32-5.93,2.62-10.7,7.39-13.32,13.32Z"/>
          <path class="cls-9" d="M112.84,104.45c2.22,3.48,5.18,6.44,8.67,8.67-3.48,2.22-6.44,5.18-8.67,8.67-2.22-3.48-5.18-6.44-8.67-8.67,3.48-2.22,6.44-5.18,8.67-8.67M112.84,89.31c0,13.15-10.66,23.81-23.81,23.81,13.15,0,23.81,10.66,23.81,23.81,0-13.15,10.65-23.81,23.81-23.81-13.15,0-23.81-10.65-23.81-23.81h0Z"/>
        </g>
        <g>
          <path class="cls-16" d="M339.04,185.54c-2.62-5.93-7.39-10.7-13.32-13.32,5.93-2.62,10.7-7.39,13.32-13.32,2.62,5.93,7.39,10.7,13.32,13.32-5.93,2.62-10.7,7.39-13.32,13.32Z"/>
          <path class="cls-9" d="M339.04,163.55c2.22,3.48,5.18,6.44,8.67,8.67-3.48,2.22-6.44,5.18-8.67,8.67-2.22-3.48-5.18-6.44-8.67-8.67,3.48-2.22,6.44-5.18,8.67-8.67M339.04,148.41c0,13.15-10.66,23.81-23.81,23.81,13.15,0,23.81,10.66,23.81,23.81,0-13.15,10.65-23.81,23.81-23.81-13.15,0-23.81-10.65-23.81-23.81h0Z"/>
        </g>
        <g>
          <path class="cls-16" d="M89.18,166.2c-2.11-4.29-5.6-7.78-9.89-9.89,4.29-2.11,7.78-5.6,9.89-9.89,2.11,4.29,5.6,7.78,9.89,9.89-4.29,2.11-7.78,5.6-9.89,9.89Z"/>
          <path class="cls-9" d="M89.18,150.72c1.54,2.16,3.44,4.06,5.6,5.6-2.16,1.54-4.06,3.44-5.6,5.6-1.54-2.16-3.44-4.06-5.6-5.6,2.16-1.54,4.06-3.44,5.6-5.6M89.18,136.92c0,10.72-8.68,19.4-19.4,19.4,10.71,0,19.4,8.68,19.4,19.4,0-10.71,8.68-19.4,19.4-19.4-10.72,0-19.4-8.68-19.4-19.4h0Z"/>
        </g>
        <g>
          <path class="cls-16" d="M343.14,247.8c-1.83-3.49-4.7-6.36-8.2-8.2,3.49-1.83,6.36-4.7,8.2-8.2,1.83,3.49,4.7,6.36,8.2,8.2-3.49,1.83-6.36,4.7-8.2,8.2Z"/>
          <path class="cls-9" d="M343.14,235.49c1.18,1.55,2.56,2.93,4.11,4.11-1.55,1.18-2.93,2.56-4.11,4.11-1.18-1.55-2.56-2.93-4.11-4.11,1.55-1.18,2.93-2.56,4.11-4.11M343.14,222.43c0,9.49-7.69,17.18-17.18,17.18,9.49,0,17.18,7.69,17.18,17.18,0-9.48,7.69-17.18,17.18-17.18-9.49,0-17.18-7.69-17.18-17.18h0Z"/>
        </g>
        <g>
          <g>
            <path class="cls-24" d="M258.52,404.02s-70.39-31.24-98.96-65.17l37.53,46.64,58.68,30.47,2.76-11.94Z"/>
            <path class="cls-9" d="M255.08,417.26l-58.68-30.47-.47-.38-37.53-46.64,2.27-1.87c28.03,33.29,97.73,64.46,98.43,64.78l.84,1.68-2.76,11.94-2.11.97ZM198.04,384.32l56.72,29.46,2.06-8.91c-7.51-3.44-51.39-24-81.45-48.71l22.67,28.17Z"/>
          </g>
          <g>
            <path class="cls-24" d="M140.72,332.79s33.45,57.19,110.38,91.22l5.24-11.6s-57.35-27.42-100.41-80l-15.22.37Z"/>
            <path class="cls-9" d="M250.21,426.02c-40.06-17.72-68.19-41.78-84.73-58.85-17.96-18.53-26.31-32.68-26.66-33.27l1.85-3.32,15.21-.37,1.76.81c42.23,51.56,99.08,79.13,99.65,79.4l1.06,2.9-5.24,11.6-2.9,1.11ZM144.68,334.9c3.48,5.22,11.39,16.25,24.07,29.32,15.98,16.46,42.95,39.57,81.24,56.88l3.46-7.66c-10.36-5.32-60.19-32.36-98.54-78.78l-10.23.25Z"/>
          </g>
          <ellipse class="cls-26" cx="188.48" cy="376.35" rx="15.02" ry="15.46"/>
          <g>
            <polygon class="cls-24" points="152.5 352.44 164.69 365.47 176.65 353.6 164.57 341.07 152.5 352.44"/>
            <path class="cls-9" d="M164.69,367.68s-.03,0-.04,0c-.6-.01-1.16-.26-1.57-.7l-12.19-13.03c-.83-.89-.79-2.28.1-3.12l12.07-11.36c.88-.83,2.26-.8,3.1.08l12.07,12.52c.84.87.82,2.25-.03,3.1l-11.96,11.87c-.41.41-.97.64-1.56.64ZM155.61,352.53l9.13,9.77,8.8-8.74-9.05-9.39-8.88,8.36Z"/>
          </g>
          <line class="cls-27" x1="170.3" y1="347.19" x2="158.84" y2="359.36"/>
          <line class="cls-27" x1="173.22" y1="350.04" x2="161.32" y2="361.87"/>
          <path class="cls-9" d="M183.22,367.18c.7-4.56,7.52-5.9,10.15-2.26-3.58.65-6.65,1.06-10.15,2.26h0Z"/>
          <path class="cls-9" d="M176.18,376.98c1.34-3.45,4.46-6.86,8.41-7.06,4.63-.3,8.47,3.45,8,8.12-.15,2.52-2.16,6.31-5.19,5.52-2.74-1.19-2.82-4.71-4.23-6.84-.24-.37-.41-.54-.67-.65-1.12-.15-2.25-.1-3.33.31-.77.3-1.51.79-1.99,1.57.53-2.42,3.62-3.72,5.92-3.44,1.69.5,2.44,2.18,3.18,3.45.62,1.04,1.09,2.36,1.94,2.98-.15-.05-.09,0,.06-.14,1.39-1.17,1.68-3.39,1.16-5.07-.59-2.12-2.65-3.32-4.84-3.5-3.29-.23-6.26,2.33-8.42,4.76h0Z"/>
          <path class="cls-9" d="M185.49,369.4c2.36-1.73,5.68-3.41,8.54-1.8,0,0-.1.95-.1.95-2.12,1.17-4.69,2.87-4.79,5.4-.01.33.14,1.06.3,1.24-.02-.03-.05-.04-.09-.07-.06-.06-.32-.06-.31-.06.57-.42,1.07-1.13,1.56-1.71.95-1.08,1.86-2.49,3.56-2.57.52-.02,1.12.31,1.23.38,2.4,1.23,4.65,3.47,4.77,6.37.03,5.59-5.01,9.73-10.06,10.96-3.13.74-6.42-.03-9.17-1.61-1.12-.75-2.03-1.25-2.59-2.79-.25-1.37.15-2.72,1-3.89.83-1.17,2.63-1.56,3.9-1.21.42.1.84.24,1.23.4,1.56.65,2.15,2.8,3.23,3.54.49.35.8.25,1.36-.02,1.61-.94,2.72-3.01,2.61-4.9-.02-.28-.06-.59-.14-.86-.34-1.21-.59-2.74.42-3.8,1.05-1.06,2.85-1.27,3.96-.18.53.81.61,1.78.7,2.7.23,2.88-.95,6.07-3.65,7.39,2.71-1.89,3.25-5.57,2.29-8.55-.09-.25-.19-.53-.34-.71-.25-.12-.66-.16-1.02-.06-1.51.35-.88,1.9-.49,3.06,1.29,3.74-2.78,10.51-7.07,8-1.41-.89-2.04-2.47-2.84-3.16-.63-.21-1.53-.53-1.97.07-.25.33-.42,1.06-.44,1.53.03-.04,0-.12,0-.12-.04-.04.16.25.4.45,3.61,2.86,8.91,2.62,12.48-.24,2.3-1.74,4.65-5.15,2.92-7.88-.6-.96-1.67-1.78-2.68-2.4-.29-.17-.12-.07-.08-.1-1.72.63-3.37,4.72-5.65,3.75-.84-.49-1.02-1.36-1.1-2.15-.34-2.55,1.58-4.66,3.54-5.88.84-.53,1.69-.96,2.63-1.33l-.1.95c-2.42-1.6-5.56-.31-7.93.9h0Z"/>
          <path class="cls-9" d="M181.32,367.18c-.44,3.08-2.28,4.9-4.68,6.7-1.52-3.05,1.49-6.66,4.68-6.7h0Z"/>
          <path class="cls-9" d="M194.43,365.47c1.92.58,3,3.05,1.73,4.76,0,0-.76-2.16-.76-2.16.53.09.88.18,1.29.33,2.74.93,4.84,4.14,3.69,6.97-.9-1.15-1.62-2.11-2.68-2.93-.83-.7-1.88-1.3-2.85-1.75,0,0-.76-2.16-.76-2.16.93-.7.5-1.88.34-3.06h0Z"/>
          <path class="cls-9" d="M180.12,377.72c-.49,1.01-.44,1.51-.82,2.26-.44.67-1.15,1.26-1.9,1.78-1.05-.77-1.29-2.19-.62-3.3.66-1.11,2.25-1.74,3.35-.74h0Z"/>
        </g>
        <path class="cls-9" d="M256.08,393.7s-2.23,29.36-14.84,28.08v4h9.86l6.18-11.94,3.02-19.51-4.22-.63Z"/>
      </g>
    </g>
  </g>
</svg>