<svg width="16" height="16" viewBox="0 0 16 16" fill="none" xmlns="http://www.w3.org/2000/svg">
<path fill-rule="evenodd" clip-rule="evenodd" d="M4.38408 0C1.96282 0 0 1.95823 0 4.37383V11.6262C0 14.0418 1.96282 16 4.38408 16H11.6159C14.0372 16 16 14.0418 16 11.6262V4.37383C16 1.95823 14.0372 0 11.6159 0H4.38408ZM8.52415 4.22565C8.52415 3.92628 8.2809 3.68359 7.98083 3.68359C7.68076 3.68359 7.4375 3.92628 7.4375 4.22565V11.8144C7.4375 12.1138 7.68076 12.3565 7.98083 12.3565C8.2809 12.3565 8.52415 12.1138 8.52415 11.8144V4.22565ZM3.97301 5.66406C4.27308 5.66406 4.51634 5.90675 4.51634 6.20612V9.7949C4.51634 10.0943 4.27308 10.337 3.97301 10.337C3.67294 10.337 3.42969 10.0943 3.42969 9.7949L3.42969 6.20612C3.42969 5.90675 3.67294 5.66406 3.97301 5.66406ZM12.5359 6.20612C12.5359 5.90675 12.2926 5.66406 11.9925 5.66406C11.6925 5.66406 11.4492 5.90675 11.4492 6.20612V9.7949C11.4492 10.0943 11.6925 10.337 11.9925 10.337C12.2926 10.337 12.5359 10.0943 12.5359 9.7949V6.20612Z" fill="black"/>
</svg>
