<svg width="16" height="16" viewBox="0 0 16 16" fill="none" xmlns="http://www.w3.org/2000/svg">
<path d="M12 0H4C1.792 0 0 1.78489 0 3.98599V9.57279C0 11.7739 1.792 13.5588 4 13.5588H5.2C5.416 13.5588 5.704 13.7029 5.84 13.8789L7.04 15.4717C7.568 16.1761 8.432 16.1761 8.96 15.4717L10.16 13.8789C10.312 13.6788 10.552 13.5588 10.8 13.5588H12C14.208 13.5588 16 11.7739 16 9.57279V3.98599C16 1.78489 14.208 0 12 0ZM4.8 8.004C4.352 8.004 4 7.64382 4 7.2036C4 6.76338 4.36 6.4032 4.8 6.4032C5.24 6.4032 5.6 6.76338 5.6 7.2036C5.6 7.64382 5.248 8.004 4.8 8.004ZM8 8.004C7.552 8.004 7.2 7.64382 7.2 7.2036C7.2 6.76338 7.56 6.4032 8 6.4032C8.44 6.4032 8.8 6.76338 8.8 7.2036C8.8 7.64382 8.448 8.004 8 8.004ZM11.2 8.004C10.752 8.004 10.4 7.64382 10.4 7.2036C10.4 6.76338 10.76 6.4032 11.2 6.4032C11.64 6.4032 12 6.76338 12 7.2036C12 7.64382 11.648 8.004 11.2 8.004Z" fill="black"/>
</svg>
