<svg width="62" height="68" viewBox="0 0 62 68" fill="none" xmlns="http://www.w3.org/2000/svg">
<path d="M39.6451 41.6636C39.4953 41.7087 39.3498 41.7595 39.2082 41.8176C39.1322 41.8483 39.0505 41.8627 38.9686 41.86C38.8866 41.8573 38.8061 41.8375 38.7323 41.8019C38.6585 41.7663 38.593 41.7157 38.54 41.6534C38.4871 41.591 38.4479 41.5183 38.4249 41.4399L36.0865 33.6172L9.45312 41.5088L15.8027 62.7526C16.0247 63.4951 16.5341 64.1193 17.2186 64.488C17.9031 64.8567 18.7067 64.9397 19.4527 64.7187L40.4621 58.4928C41.208 58.2713 41.835 57.7641 42.2054 57.0826C42.5757 56.4012 42.6589 55.6012 42.4369 54.8587L40.936 49.836C40.9123 49.7579 40.9053 49.6757 40.9154 49.5946C40.9255 49.5136 40.9525 49.4356 40.9948 49.3656C41.037 49.2956 41.0935 49.2352 41.1606 49.1882C41.2277 49.1413 41.3039 49.1088 41.3844 49.093C41.5362 49.0648 41.6864 49.0287 41.8345 48.9848C44.0395 48.3295 45.3359 46.1628 44.7324 44.1398C44.129 42.1168 41.8502 41.0107 39.6451 41.6636Z" fill="#99ADF9"/>
<g style="mix-blend-mode:multiply" opacity="0.25">
<path d="M32.5191 61.6157C32.5191 61.6157 20.8665 64.872 18.3002 62.9813C16.1379 61.3919 16.0383 59.7535 12.969 53.2891C12.9349 58.8598 15.9881 68.0022 15.9881 68.0022L32.5191 61.6157Z" fill="#99ADF9"/>
</g>
<g style="mix-blend-mode:multiply" opacity="0.25">
<path d="M19.3789 39.6174C19.3789 39.6174 20.5161 45.0373 24.6374 43.8164C28.7586 42.5955 26.7307 37.4375 26.7307 37.4375L19.3789 39.6174Z" fill="#99ADF9"/>
</g>
<path d="M28.8999 9.57031L5.07727 16.627C4.33141 16.8483 3.70437 17.3553 3.33404 18.0367C2.96372 18.718 2.88042 19.5178 3.10247 20.2603L9.4532 41.5043L18.5929 38.8013C18.6651 38.7797 18.741 38.7733 18.8158 38.7825C18.8906 38.7917 18.9627 38.8164 19.0273 38.855C19.092 38.8935 19.1479 38.9451 19.1914 39.0064C19.2349 39.0676 19.265 39.1373 19.2799 39.2108C19.3068 39.3468 19.3409 39.4833 19.3824 39.6204C20.0406 41.8151 22.2177 43.1069 24.2477 42.5048C26.2776 41.9026 27.394 39.6375 26.7374 37.4403C26.6963 37.3043 26.6501 37.1708 26.5975 37.0413C26.5701 36.9717 26.5575 36.8972 26.5606 36.8225C26.5636 36.7477 26.5823 36.6745 26.6153 36.6073C26.6484 36.5402 26.6951 36.4806 26.7525 36.4324C26.8099 36.3842 26.8768 36.3484 26.9489 36.3273L36.0879 33.6185L28.8999 9.57031Z" fill="#FEC272"/>
<g style="mix-blend-mode:multiply" opacity="0.52">
<path d="M6.41546 32.8961C6.41546 32.8961 3.14803 21.2944 5.0429 18.7393C6.64006 16.5863 9.46631 15.3264 12.8044 14.3363C7.20934 14.3023 0 16.4372 0 16.4372L6.41546 32.8961Z" fill="#FEC272"/>
</g>
<path d="M28.9004 9.5736L30.9465 16.419C30.9796 16.528 30.9889 16.6428 30.9738 16.7557C30.9586 16.8686 30.9194 16.977 30.8587 17.0736C30.7979 17.1701 30.7171 17.2526 30.6217 17.3155C30.5263 17.3784 30.4185 17.4202 30.3054 17.4381C30.0921 17.4697 29.8812 17.5163 29.6743 17.5774C27.47 18.2327 26.1729 20.3994 26.7772 22.4224C27.3815 24.4454 29.6571 25.5541 31.863 24.9011C32.0699 24.8401 32.2721 24.764 32.4678 24.6733C32.5721 24.6276 32.6851 24.6046 32.799 24.6057C32.913 24.6068 33.0255 24.6321 33.1289 24.6798C33.2323 24.7275 33.3243 24.7966 33.3988 24.8825C33.4733 24.9684 33.5286 25.0691 33.5609 25.1779L36.0828 33.6159L44.7824 31.037C45.0318 30.9612 45.2409 30.7903 45.3642 30.5617C45.4875 30.333 45.515 30.0651 45.4406 29.8164L45.4333 29.7917C44.775 27.5962 45.8924 25.3285 47.9231 24.7272C49.9537 24.1259 52.1325 25.4171 52.7883 27.6125L52.7957 27.6363C52.8703 27.8857 53.0413 28.0955 53.2711 28.2196C53.501 28.3437 53.7709 28.372 54.0217 28.2983L59.9048 26.5549C60.6506 26.3336 61.2777 25.8266 61.648 25.1453C62.0183 24.4639 62.1016 23.6641 61.8796 22.9217L56.367 4.47802C56.2571 4.11044 56.0755 3.768 55.8326 3.47026C55.5898 3.17252 55.2904 2.9253 54.9515 2.74274C54.6126 2.56017 54.241 2.44582 53.8577 2.40623C53.4745 2.36664 53.0871 2.40257 52.7178 2.51197L28.9004 9.5736Z" fill="#FF97C9"/>
<g style="mix-blend-mode:multiply" opacity="0.19">
<path d="M29.6736 17.5757C29.6736 17.5757 27.3895 18.7782 28.2218 21.5685C29.0541 24.3587 31.0024 24.7216 32.2836 24.9494C29.9797 26.9467 23.1719 24.1973 23.1719 24.1973L25.744 17.3086L29.6736 17.5757Z" fill="#FF97C9"/>
</g>
<g style="mix-blend-mode:multiply" opacity="0.19">
<path d="M60.1968 17.2732C60.1968 17.2732 56.5608 5.78 53.5718 4.67194C50.5238 3.60251 47.2172 3.50205 44.1094 4.38447C48.7772 1.309 56.5338 0 56.5338 0L60.1968 17.2732Z" fill="#FF97C9"/>
</g>
<path d="M12.6156 27.2659C13.3936 27.2659 14.0242 26.638 14.0242 25.8634C14.0242 25.0889 13.3936 24.4609 12.6156 24.4609C11.8377 24.4609 11.207 25.0889 11.207 25.8634C11.207 26.638 11.8377 27.2659 12.6156 27.2659Z" fill="#1C3177"/>
<path d="M23.0648 24.1722C23.8428 24.1722 24.4734 23.5443 24.4734 22.7697C24.4734 21.9951 23.8428 21.3672 23.0648 21.3672C22.2869 21.3672 21.6562 21.9951 21.6562 22.7697C21.6562 23.5443 22.2869 24.1722 23.0648 24.1722Z" fill="#1C3177"/>
<path d="M17.0664 27.5923C17.0664 27.5923 17.1059 26.5003 18.3987 26.1178C19.6914 25.7353 20.286 26.6397 20.286 26.6397" stroke="#1C3177" stroke-width="4.337" stroke-miterlimit="10" stroke-linecap="round"/>
<path d="M21.3773 51.6644C22.1553 51.6644 22.7859 51.0365 22.7859 50.2619C22.7859 49.4873 22.1553 48.8594 21.3773 48.8594C20.5994 48.8594 19.9688 49.4873 19.9688 50.2619C19.9688 51.0365 20.5994 51.6644 21.3773 51.6644Z" fill="#1C3177"/>
<path d="M31.8266 48.5706C32.6045 48.5706 33.2352 47.9427 33.2352 47.1681C33.2352 46.3935 32.6045 45.7656 31.8266 45.7656C31.0486 45.7656 30.418 46.3935 30.418 47.1681C30.418 47.9427 31.0486 48.5706 31.8266 48.5706Z" fill="#1C3177"/>
<path d="M41.0127 17.4462C41.2348 18.1884 40.6836 18.5465 39.9367 18.7676C39.1898 18.9888 38.5335 18.9888 38.3113 18.2466C38.2551 18.0691 38.2349 17.8822 38.252 17.6968C38.269 17.5115 38.3229 17.3314 38.4106 17.167C38.4983 17.0026 38.618 16.8572 38.7627 16.7393C38.9074 16.6214 39.0742 16.5333 39.2534 16.4802C39.4327 16.4271 39.6207 16.41 39.8066 16.43C39.9926 16.4499 40.1727 16.5065 40.3364 16.5964C40.5001 16.6863 40.6443 16.8078 40.7604 16.9537C40.8765 17.0996 40.9623 17.267 41.0127 17.4462Z" fill="#1C3177"/>
<path d="M51.458 14.3525C51.6801 15.0955 51.1289 15.4527 50.382 15.6739C49.6351 15.8951 48.9789 15.8951 48.7566 15.1528C48.7004 14.9753 48.6802 14.7884 48.6973 14.6031C48.7143 14.4177 48.7683 14.2376 48.8559 14.0732C48.9436 13.9088 49.0633 13.7634 49.208 13.6455C49.3527 13.5276 49.5195 13.4395 49.6987 13.3864C49.878 13.3333 50.066 13.3163 50.252 13.3362C50.4379 13.3562 50.618 13.4127 50.7817 13.5027C50.9454 13.5926 51.0896 13.714 51.2057 13.8599C51.3218 14.0058 51.4076 14.1733 51.458 14.3525Z" fill="#1C3177"/>
<path d="M48.0287 18.5727C47.9775 19.2797 47.1146 19.2042 45.8647 19.5747C44.6147 19.9451 44.0174 20.5578 43.5023 19.9147C42.8442 19.0946 43.9739 17.8002 45.2236 17.4299C46.4734 17.0597 48.1052 17.5308 48.0287 18.5727Z" fill="#F774B9"/>
<path d="M29.7016 50.028L24.6505 51.5238C24.1704 51.666 23.8971 52.1686 24.0399 52.6465L24.0401 52.6471C24.1829 53.125 24.6879 53.3971 25.168 53.2549L30.2191 51.759C30.6992 51.6169 30.9726 51.1142 30.8297 50.6364L30.8295 50.6357C30.6867 50.1579 30.1817 49.8858 29.7016 50.028Z" fill="white"/>
<path d="M52.4062 46.3359L53.8107 48.8672" stroke="#1C3177" stroke-width="5.783" stroke-miterlimit="10" stroke-linecap="round"/>
<path d="M55.3906 37.6528L58.0228 36.4297" stroke="#1C3177" stroke-width="5.783" stroke-miterlimit="10" stroke-linecap="round"/>
<path d="M55.2266 42.3359L58.6206 43.4467" stroke="#1C3177" stroke-width="5.783" stroke-miterlimit="10" stroke-linecap="round"/>
</svg>
