<svg width="16" height="16" viewBox="0 0 16 16" fill="none" xmlns="http://www.w3.org/2000/svg">
<path fill-rule="evenodd" clip-rule="evenodd" d="M1.84375 2.28125H4.59375V1.625C4.59375 0.727537 5.32129 0 6.21875 0H9.78125C10.6787 0 11.4063 0.727537 11.4063 1.625V2.28125H14.1563C15.1745 2.28125 16 3.10672 16 4.125V6.38658L9.91259 7.88538C8.65629 8.19469 7.34372 8.19469 6.08743 7.88538L0 6.38658V4.125C0 3.10673 0.825475 2.28125 1.84375 2.28125ZM6.21875 1.25C6.01164 1.25 5.84375 1.41789 5.84375 1.625V2.28125H10.1563V1.625C10.1563 1.41789 9.98836 1.25 9.78125 1.25H6.21875Z" fill="#9C9C9C"/>
<path d="M0 7.67391V14.1563C0 15.1745 0.825475 16 1.84375 16H14.1563C15.1745 16 16 15.1745 16 14.1563V7.67391L9.91259 9.17271C8.65629 9.48202 7.34372 9.48202 6.08743 9.17271L0 7.67391Z" fill="#9C9C9C"/>
</svg>
