<svg width="16" height="16" viewBox="0 0 16 16" fill="none" xmlns="http://www.w3.org/2000/svg">
<rect width="16" height="16" rx="4" fill-opacity="0.16"/>
<circle cx="8.00238" cy="8.00238" r="4.86957" fill="#191919"/>
<path fill-rule="evenodd" clip-rule="evenodd" d="M4.31402 10.7255C7.182 10.7255 9.50696 8.4005 9.50696 5.53252C9.50696 4.70505 9.31342 3.92278 8.96914 3.22852C11.1954 3.67694 12.8719 5.64374 12.8719 8.00212C12.8719 10.6915 10.6918 12.8717 8.00237 12.8717C6.31659 12.8717 4.83088 12.0151 3.95679 10.7134C4.07483 10.7214 4.19395 10.7255 4.31402 10.7255Z" fill="#333333"/>
<path fill-rule="evenodd" clip-rule="evenodd" d="M7.9645 4.19922C8.2534 4.19922 8.4876 4.43342 8.4876 4.72232V7.48047H10.2947C10.5836 7.48047 10.8178 7.71467 10.8178 8.00357C10.8178 8.29247 10.5836 8.52667 10.2947 8.52667H8.00255C7.69264 8.52667 7.44141 8.27544 7.44141 7.96553V4.72232C7.44141 4.43342 7.67561 4.19922 7.9645 4.19922Z" fill="white"/>
</svg>
