<svg width="256" height="256" viewBox="0 0 256 256" fill="none" xmlns="http://www.w3.org/2000/svg">
<g clip-path="url(#clip0_2181_106)">
<path d="M128 251C195.931 251 251 195.931 251 128C251 60.069 195.931 5 128 5C60.069 5 5 60.069 5 128C5 195.931 60.069 251 128 251Z" fill="white"/>
<path fill-rule="evenodd" clip-rule="evenodd" d="M128 10C62.8304 10 10 62.8304 10 128C10 193.17 62.8304 246 128 246C193.17 246 246 193.17 246 128C246 62.8304 193.17 10 128 10ZM0 128C0 57.3076 57.3076 0 128 0C198.692 0 256 57.3076 256 128C256 198.692 198.692 256 128 256C57.3076 256 0 198.692 0 128Z" fill="black"/>
<path d="M126.006 82.7744L67.6821 134.669C65.976 136.187 65 138.362 65 140.646V141.173C65 148.078 73.1595 151.74 78.3179 147.15L126.006 104.719C127.143 103.707 128.857 103.707 129.994 104.719L177.682 147.15C182.84 151.74 191 148.078 191 141.173V140.646C191 138.362 190.024 136.187 188.318 134.669L129.994 82.7744C128.857 81.7627 127.143 81.7627 126.006 82.7744Z" fill="black"/>
</g>
<defs>
<clipPath id="clip0_2181_106">
<rect width="256" height="256" fill="white"/>
</clipPath>
</defs>
</svg>
