<svg width="38" height="44" viewBox="0 0 38 44" fill="none" xmlns="http://www.w3.org/2000/svg">
<path d="M20.6291 12.1859L20.9308 12.291L20.9316 12.2902L25.0348 13.7197L20.6299 15.2542C20.6299 15.2542 20.6299 15.2542 20.6299 15.2542C17.8507 16.2223 15.6764 18.4738 14.7439 21.3325C14.7439 21.3325 14.7439 21.3325 14.7439 21.3326L13.2773 25.828L11.8108 21.3326C11.8108 21.3325 11.8108 21.3325 11.8108 21.3325C10.8783 18.4738 8.70395 16.2223 5.92476 15.2542C5.92475 15.2542 5.92475 15.2542 5.92474 15.2542L1.52004 13.7197L5.92392 12.1859L5.92395 12.1859C8.70315 11.2179 10.8775 8.96633 11.81 6.10757L13.2765 1.61215L14.7431 6.10757C15.6756 8.96633 17.8499 11.2179 20.6291 12.1859Z" fill="black" stroke="black"/>
<path d="M33.761 33.3542L34.0625 33.4592L34.063 33.4586L36.4781 34.2999L33.7616 35.2463C33.7616 35.2463 33.7616 35.2463 33.7616 35.2463C31.7524 35.9462 30.1826 37.573 29.5096 39.636C29.5096 39.636 29.5096 39.636 29.5096 39.636L28.6123 42.3867L27.7149 39.636C27.7149 39.636 27.7149 39.636 27.7149 39.636C27.042 37.573 25.4721 35.9461 23.463 35.2463C23.463 35.2463 23.463 35.2463 23.4629 35.2463L20.7466 34.3L23.4624 33.3542L23.4624 33.3542C25.4715 32.6543 27.0414 31.0274 27.7143 28.9644L28.6117 26.2137L29.5091 28.9644C30.182 31.0274 31.7519 32.6543 33.761 33.3542Z" fill="black" stroke="black"/>
</svg>
