<svg width="53" height="61" viewBox="0 0 53 61" fill="none" xmlns="http://www.w3.org/2000/svg">
<path d="M28.8414 17.0887L29.1351 17.1876L29.1362 17.1865L35.471 19.3222L28.8425 21.5569C28.8425 21.5569 28.8425 21.5569 28.8425 21.5569C25.0303 22.8419 22.0377 25.8346 20.7527 29.6469C20.7527 29.647 20.7527 29.647 20.7527 29.647L18.5181 36.2756L16.2835 29.647C16.2835 29.647 16.2835 29.647 16.2835 29.6469C14.9985 25.8346 12.0059 22.8419 8.19365 21.5569C8.19364 21.5569 8.19364 21.5569 8.19363 21.5569L1.56532 19.3223L8.1925 17.0887L8.19252 17.0887C12.0048 15.8036 14.9974 12.8109 16.2824 8.99857C16.2824 8.99857 16.2824 8.99856 16.2824 8.99855L18.517 2.3699L20.7515 8.99855C20.7515 8.99856 20.7515 8.99857 20.7515 8.99857C22.0366 12.8109 25.0292 15.8036 28.8414 17.0887Z" fill="url(#paint0_linear_738_25785)" stroke="black"/>
<path d="M47.1614 45.6578L47.4549 45.7567L47.4557 45.7559L51.4359 47.0978L47.1622 48.5386C47.1622 48.5386 47.1622 48.5386 47.1622 48.5386C44.4239 49.4616 42.2744 51.6112 41.3514 54.3495C41.3514 54.3495 41.3514 54.3495 41.3514 54.3495L39.9107 58.6233L38.4699 54.3495C38.4699 54.3495 38.4699 54.3495 38.4699 54.3495C37.5469 51.6112 35.3974 49.4616 32.6592 48.5386C32.6592 48.5386 32.6592 48.5386 32.6592 48.5386L28.3856 47.0978L32.6584 45.6578L32.6584 45.6578C35.3966 44.7347 37.5461 42.5852 38.4691 39.8469C38.4691 39.8468 38.4691 39.8468 38.4691 39.8468L39.9099 35.573L41.3506 39.8468C41.3506 39.8468 41.3506 39.8468 41.3506 39.8469C42.2736 42.5852 44.4231 44.7347 47.1614 45.6578Z" fill="url(#paint1_linear_738_25785)" stroke="black"/>
<defs>
<linearGradient id="paint0_linear_738_25785" x1="-2.242e-08" y1="19.4311" x2="37.0361" y2="19.4311" gradientUnits="userSpaceOnUse">
<stop stop-color="#99E2E8"/>
<stop offset="1" stop-color="#F7E7F7"/>
</linearGradient>
<linearGradient id="paint1_linear_738_25785" x1="26.8203" y1="47.1748" x2="53.001" y2="47.1748" gradientUnits="userSpaceOnUse">
<stop stop-color="#99E2E8"/>
<stop offset="1" stop-color="#F7E7F7"/>
</linearGradient>
</defs>
</svg>
