<svg width="93" height="93" viewBox="0 0 93 93" fill="none" xmlns="http://www.w3.org/2000/svg">
<circle cx="46.5" cy="46.5" r="46.5" fill="black"/>
<path d="M56.25 27H36.75C31.368 27 27 31.3507 27 36.7159V50.3337C27 55.6989 31.368 60.0495 36.75 60.0495H39.675C40.2015 60.0495 40.9035 60.4007 41.235 60.8299L44.16 64.7124C45.447 66.4292 47.553 66.4292 48.84 64.7124L51.765 60.8299C52.1355 60.3422 52.7205 60.0495 53.325 60.0495H56.25C61.632 60.0495 66 55.6989 66 50.3337V36.7159C66 31.3507 61.632 27 56.25 27ZM38.7 46.5098C37.608 46.5098 36.75 45.6318 36.75 44.5588C36.75 43.4857 37.6275 42.6078 38.7 42.6078C39.7725 42.6078 40.65 43.4857 40.65 44.5588C40.65 45.6318 39.792 46.5098 38.7 46.5098ZM46.5 46.5098C45.408 46.5098 44.55 45.6318 44.55 44.5588C44.55 43.4857 45.4275 42.6078 46.5 42.6078C47.5725 42.6078 48.45 43.4857 48.45 44.5588C48.45 45.6318 47.592 46.5098 46.5 46.5098ZM54.3 46.5098C53.208 46.5098 52.35 45.6318 52.35 44.5588C52.35 43.4857 53.2275 42.6078 54.3 42.6078C55.3725 42.6078 56.25 43.4857 56.25 44.5588C56.25 45.6318 55.392 46.5098 54.3 46.5098Z" fill="white" fill-opacity="0.6"/>
</svg>
