<?xml version="1.0" encoding="UTF-8"?>
<svg id="Layer_1" data-name="Layer 1" xmlns="http://www.w3.org/2000/svg" xmlns:xlink="http://www.w3.org/1999/xlink" viewBox="0 0 5147.22 869.95">
  <defs>
    <style>
      .cls-1 {
        fill: url(#linear-gradient);
      }

      .cls-1, .cls-2, .cls-3, .cls-4, .cls-5, .cls-6 {
        stroke-width: 0px;
      }

      .cls-2 {
        fill: url(#linear-gradient-2);
      }

      .cls-4 {
        fill: #f7e7f7;
      }

      .cls-5 {
        fill: #3d3d3d;
      }

      .cls-6 {
        fill: #1321a0;
      }
    </style>
    <linearGradient id="linear-gradient" x1="29.1" y1="-1885.58" x2="561.51" y2="-1885.58" gradientTransform="translate(0 2463.93)" gradientUnits="userSpaceOnUse">
      <stop offset=".41" stop-color="#6bd3d6"/>
      <stop offset=".93" stop-color="#f7e7f7"/>
    </linearGradient>
    <linearGradient id="linear-gradient-2" x1="22.52" y1="-1994.77" x2="333.16" y2="-1994.77" gradientTransform="translate(0 2463.93)" gradientUnits="userSpaceOnUse">
      <stop offset="0" stop-color="#99e2e8"/>
      <stop offset=".3" stop-color="#c0e4ee"/>
      <stop offset=".58" stop-color="#dee5f3"/>
      <stop offset=".83" stop-color="#f0e6f5"/>
      <stop offset="1" stop-color="#f7e7f7"/>
    </linearGradient>
  </defs>
  <g>
    <path class="cls-3" d="m847.28,0c25.75,0,47.83,1.66,66.23,4.97,18.39,3.31,31.64,6.44,39.75,9.38l-14.36,88.33c-8.09-2.94-19.14-6.08-33.12-9.39s-30.91-4.97-50.78-4.97c-47.84,0-81.33,13.08-100.47,39.2-19.14,26.12-28.7,61.27-28.7,105.42v49.69h220.81v86.11h-220.81v487.97h-102.67V230.73c0-73.59,18.03-130.45,54.09-170.56S770,0,847.28,0Zm378.67,867.75c-63.31-1.48-108.2-15.09-134.7-40.86-26.5-25.75-39.73-65.86-39.73-120.33V17.66L1154.18,0v690c0,16.94,1.47,30.92,4.41,41.95,2.94,11.05,7.73,19.88,14.36,26.5s15.45,11.59,26.5,14.91c11.03,3.31,24.66,6.06,40.84,8.27l-14.34,86.12h0Z"/>
    <path class="cls-3" d="m1745.92,840.14c-23.56,5.89-54.66,12.14-93.3,18.77s-83.34,9.94-134.12,9.94c-44.16,0-81.33-6.45-111.5-19.31-30.19-12.88-54.47-31.09-72.88-54.66-18.41-23.55-31.64-51.33-39.73-83.34s-12.14-67.53-12.14-106.55v-322.36h102.67v300.28c0,69.94,11.03,119.98,33.11,150.16s59.25,45.25,111.5,45.25c11.03,0,22.44-.36,34.22-1.09s22.81-1.66,33.12-2.77c10.31-1.09,19.69-2.2,28.16-3.31,8.47-1.09,14.53-2.39,18.22-3.86v-484.66h102.67v557.52h0Z"/>
    <path class="cls-3" d="m1824.29,570.77c0-50.78,7.36-95.12,22.08-133.03s34.23-69.36,58.52-94.39c24.28-25.02,52.25-43.78,83.91-56.3,31.64-12.52,64.03-18.78,97.16-18.78,77.28,0,136.52,24.11,177.73,72.31,41.22,48.22,61.83,121.62,61.83,220.25v17.12c0,7-.38,13.44-1.09,19.31h-393.03c4.41,59.62,21.7,104.89,51.89,135.8,30.17,30.91,77.28,46.36,141.31,46.36,36.06,0,66.42-3.12,91.08-9.38s43.23-12.33,55.75-18.22l14.36,86.11c-12.52,6.62-34.41,13.62-65.69,20.98-31.28,7.34-66.8,11.03-106.55,11.03-50.05,0-93.28-7.55-129.72-22.62-36.44-15.09-66.42-35.88-89.97-62.38-23.56-26.5-41.05-57.95-52.45-94.39s-17.11-76.36-17.11-119.8v.02h-.01Zm394.14-56.3c.72-46.38-10.88-84.45-34.78-114.27-23.92-29.81-56.86-44.72-98.81-44.72-23.56,0-44.34,4.61-62.38,13.81s-33.31,21.16-45.81,35.88c-12.52,14.72-22.27,31.66-29.27,50.78-7,19.14-11.59,38.64-13.8,58.52h284.85Z"/>
    <path class="cls-3" d="m2407.19,299.19c23.55-5.89,54.83-12.14,93.84-18.77,39-6.62,83.91-9.94,134.69-9.94,45.62,0,83.53,6.45,113.72,19.33,30.17,12.88,54.28,30.91,72.31,54.09s30.72,50.97,38.08,83.34c7.36,32.39,11.05,68.08,11.05,107.08v322.38h-102.67v-300.28c0-35.33-2.41-65.5-7.19-90.53s-12.7-45.27-23.73-60.72-25.75-26.67-44.16-33.67-41.22-10.5-68.44-10.5c-11.05,0-22.45.38-34.23,1.11-11.78.75-23,1.67-33.67,2.77-10.67,1.11-20.23,2.39-28.7,3.86s-14.53,2.58-18.22,3.31v484.66h-102.67V299.19h-.01Z"/>
    <path class="cls-3" d="m3224.15,869.95c-46.38,0-87.05-7.36-122-22.08-34.97-14.72-64.41-35.33-88.33-61.83s-41.77-57.95-53.55-94.39-17.66-76.73-17.66-120.89,6.44-84.62,19.31-121.44c12.88-36.8,31.09-68.62,54.66-95.5,23.55-26.86,52.44-47.83,86.66-62.92s72.31-22.64,114.28-22.64c25.75,0,51.52,2.22,77.28,6.62,25.75,4.42,50.41,11.42,73.97,20.98l-23.19,87.22c-15.47-7.36-33.31-13.25-53.55-17.67-20.25-4.41-41.77-6.62-64.58-6.62-57.41,0-101.39,18.03-131.94,54.09s-45.81,88.69-45.81,157.88c0,30.92,3.48,59.27,10.48,85.02,7,25.77,18.03,47.84,33.12,66.23,15.08,18.41,34.39,32.56,57.95,42.5,23.55,9.94,52.25,14.91,86.12,14.91,27.22,0,51.88-2.56,73.95-7.72s39.38-10.67,51.89-16.56l14.36,86.11c-5.89,3.69-14.36,7.17-25.39,10.48-11.05,3.31-23.56,6.25-37.55,8.84-13.98,2.56-28.89,4.77-44.7,6.62-15.83,1.83-31.09,2.75-45.81,2.75h.03Z"/>
    <path class="cls-3" d="m3389.73,570.77c0-50.78,7.36-95.12,22.08-133.03s34.23-69.36,58.52-94.39c24.28-25.02,52.25-43.78,83.91-56.3,31.64-12.52,64.03-18.78,97.16-18.78,77.28,0,136.52,24.11,177.73,72.31,41.22,48.22,61.83,121.62,61.83,220.25v17.12c0,7-.38,13.44-1.09,19.31h-393.03c4.41,59.62,21.7,104.89,51.89,135.8,30.17,30.91,77.28,46.36,141.31,46.36,36.06,0,66.42-3.12,91.08-9.38s43.23-12.33,55.75-18.22l14.36,86.11c-12.52,6.62-34.41,13.62-65.69,20.98-31.28,7.34-66.8,11.03-106.55,11.03-50.05,0-93.28-7.55-129.72-22.62-36.44-15.09-66.42-35.88-89.97-62.38-23.56-26.5-41.05-57.95-52.45-94.39s-17.11-76.36-17.11-119.8v.02h-.01Zm394.14-56.3c.72-46.38-10.88-84.45-34.78-114.27-23.92-29.81-56.86-44.72-98.81-44.72-23.56,0-44.34,4.61-62.38,13.81s-33.31,21.16-45.81,35.88c-12.52,14.72-22.27,31.66-29.27,50.78-7,19.14-11.59,38.64-13.8,58.52h284.85Z"/>
    <path class="cls-3" d="m4184.6,270.48c8.83,0,18.95.56,30.36,1.66,11.41,1.11,22.64,2.58,33.67,4.42s21.16,3.67,30.36,5.52,16.02,3.5,20.44,4.97l-17.67,89.42c-8.09-2.94-21.53-6.44-40.3-10.48-18.78-4.05-42.88-6.08-72.31-6.08-19.14,0-38.09,2.03-56.86,6.08s-31.09,6.8-36.98,8.27v482.45h-102.67V306.91c24.28-8.83,54.47-17.11,90.53-24.83,36.06-7.72,76.53-11.59,121.44-11.59h-.01Z"/>
  </g>
  <g>
    <path class="cls-4" d="m438.68,827.34h95.6l-152.19-228.28-78.36,117.54,39.92,59.88c21.23,31.84,56.75,50.86,95.03,50.86h0Z"/>
    <path class="cls-3" d="m385.7,593.65l-3.61,5.41,152.19,228.28h-95.6c-38.28,0-73.8-19.02-95.03-50.86l-39.92-59.88-3.6,5.41-3.61,5.41,37.14,55.71c23.41,35.12,62.82,56.21,105.02,56.21h118.02l-167.4-251.1-3.6,5.41h0Z"/>
    <polygon class="cls-3" points="0 282.64 185.56 560.98 0 282.64 0 282.64"/>
    <polygon class="cls-3" points="0 839.34 20.72 839.34 195.93 576.53 185.56 560.99 0 839.34"/>
    <path class="cls-3" d="m345.21,352.6c24.67-37.01,65.95-59.1,110.42-59.1h93.83l7.24-10.86h-118.02c-42.2,0-81.61,21.09-105.02,56.2l-55.27,82.9,10.36,15.55,56.46-84.69h0Z"/>
    <path class="cls-1" d="m377.89,581.94l3.6-5.41,180.02-270.03h-105.88c-40.12,0-77.35,19.93-99.6,53.31l-59.47,89.21,43.99,66.08h-.01l-3.6,5.41-3.61,5.4-.17.26-78.19,117.29h0l.03.06-3.62,5.37-2.44,3.62-.2.29-.98,1.48h-.02l-14.43-21.68-29.57-44.35-167.4,251.09-7.24,10.86h105.87c40.12,0,77.36-19.92,99.61-53.3l54.13-81.2,3.61-5.4h0l3.6-5.41,78.36-117.55,3.61-5.4h0Z"/>
    <path class="cls-6" d="m203.76,588.21l-3.9-5.87-3.9-5.86-10.35-15.56L.57,282.85h120.69c2.38,0,4.74.07,7.1.21.11.01.22.01.34.02-.05,0-.1-.01-.14-.01-3.49-.29-7-.44-10.54-.44H0l185.55,278.35h0l10.37,15.55,3.9,5.85,3.91,5.87,29.57,44.35-29.55-44.39h.01Z"/>
    <polygon class="cls-6" points="247.76 654.28 248.74 652.81 247.75 654.27 247.76 654.28"/>
    <path class="cls-2" d="m285.33,454.13l-3.89-5.87-10.34-15.58-19.24-28.98-38.03-57.28c-19.57-30.52-51.56-49.42-86.47-51.39-2.02-.12-4.06-.18-6.1-.18H22.52l170.25,255.33,10.36,15.54,3.9,5.86,3.91,5.86,44.03,66.03h0l78.19-117.3-43.93-66.17-3.9-5.87h0Z"/>
    <path class="cls-3" d="m121.26,282.85H.57l185.04,278.07,10.35,15.56,3.9,5.86,3.9,5.87,29.55,44.39,14.43,21.69v-.02l1-1.47.2-.29,2.44-3.62,3.62-5.37-.03-.05-44.03-66.03-3.91-5.86-3.9-5.86-10.36-15.54L22.52,294.85h98.74c2.04,0,4.08.06,6.1.18,34.91,1.97,66.9,20.87,86.47,51.39l38.03,57.28,19.24,28.98,10.34,15.58,3.89,5.87,3.9,5.87,43.93,66.17.17-.26,3.61-5.4,3.6-5.4h.01l-43.99-66.09-3.91-5.87-3.9-5.86-10.36-15.55-54.46-81.8c-21.54-33.6-56.73-54.47-95.23-56.86-.12-.01-.23-.01-.34-.02-2.36-.14-4.72-.21-7.1-.21h0Z"/>
  </g>
  <g>
    <path class="cls-5" d="m4322.94,366.83c.93-15.51,1.89-38.55,1.89-58.77V32.98h40.92v142.95h.93c14.57-25.39,40.92-41.85,77.58-41.85,56.42,0,96.39,47.02,95.93,116.15,0,81.36-51.25,121.78-102.03,121.78-32.92,0-59.25-12.7-76.17-42.79h-1.41l-1.89,37.62h-35.75Zm42.79-91.22c0,5.17.93,10.34,1.89,15.05,7.99,28.69,31.97,48.43,62.07,48.43,43.26,0,69.13-35.27,69.13-87.46,0-45.61-23.52-84.64-67.72-84.64-28.21,0-54.54,19.28-63.01,50.78-.93,4.69-2.35,10.34-2.35,16.92v40.92h-.02Z"/>
    <path class="cls-5" d="m4615.4,260.57c.93,55.95,36.68,78.99,78.06,78.99,29.62,0,47.5-5.17,63.01-11.75l7.06,29.62c-14.57,6.58-39.5,14.1-75.71,14.1-70.06,0-111.91-46.09-111.91-114.74s40.44-122.73,106.74-122.73c74.3,0,94.04,65.35,94.04,107.2,0,8.47-.93,15.05-1.41,19.28h-159.87v.02Zm121.32-29.62c.48-26.32-10.82-67.24-57.36-67.24-41.85,0-60.18,38.55-63.48,67.24h120.84Z"/>
    <path class="cls-5" d="m4877.78,73.9v65.35h59.25v31.51h-59.25v122.73c0,28.21,7.99,44.2,31.04,44.2,10.82,0,18.81-1.41,23.98-2.82l1.89,31.04c-7.99,3.3-20.7,5.65-36.68,5.65-19.28,0-34.79-6.1-44.67-17.4-11.75-12.23-15.99-32.45-15.99-59.25v-124.14h-35.27v-31.51h35.27v-54.54l40.44-10.82h0Z"/>
    <path class="cls-5" d="m5109.6,366.83l-3.3-28.69h-1.41c-12.69,17.87-37.14,33.86-69.59,33.86-46.09,0-69.59-32.45-69.59-65.35,0-55.01,48.91-85.11,136.83-84.64v-4.69c0-18.81-5.17-52.67-51.71-52.67-21.15,0-43.26,6.58-59.25,16.92l-9.4-27.28c18.81-12.23,46.09-20.22,74.76-20.22,69.59,0,86.53,47.5,86.53,93.11v85.11c0,19.74.93,39.03,3.76,54.54h-37.62Zm-6.12-116.15c-45.13-.93-96.39,7.06-96.39,51.25,0,26.8,17.87,39.5,39.03,39.5,29.62,0,48.43-18.81,55.01-38.09,1.41-4.23,2.35-8.93,2.35-13.16v-39.5h0Z"/>
  </g>
</svg>