<?xml version="1.0" encoding="UTF-8"?>
<svg id="Layer_1" data-name="Layer 1" xmlns="http://www.w3.org/2000/svg" viewBox="0 0 4767.54 869.95">
  <defs>
    <style>
      .cls-1 {
        fill: #fff;
        stroke-width: 0px;
      }
    </style>
  </defs>
  <g>
    <path class="cls-1" d="M4317.9,215.1c.51-8.46,1.03-21.03,1.03-32.06V32.98h22.32v77.98h.51c7.95-13.85,22.32-22.83,42.32-22.83,30.78,0,52.58,25.65,52.33,63.36,0,44.38-27.96,66.43-55.66,66.43-17.96,0-32.32-6.93-41.55-23.34h-.77l-1.03,20.52h-19.49ZM4341.24,165.34c0,2.82.51,5.64,1.03,8.21,4.36,15.65,17.44,26.42,33.86,26.42,23.6,0,37.71-19.24,37.71-47.71,0-24.88-12.83-46.17-36.94-46.17-15.39,0-29.75,10.52-34.37,27.7-.51,2.56-1.28,5.64-1.28,9.23v22.32Z"/>
    <path class="cls-1" d="M4477.44,157.13c.51,30.52,20.01,43.09,42.58,43.09,16.16,0,25.91-2.82,34.37-6.41l3.85,16.16c-7.95,3.59-21.55,7.69-41.3,7.69-38.22,0-61.05-25.14-61.05-62.59s22.06-66.95,58.23-66.95c40.53,0,51.3,35.65,51.3,58.48,0,4.62-.51,8.21-.77,10.52h-87.21ZM4543.62,140.97c.26-14.36-5.9-36.68-31.29-36.68-22.83,0-32.83,21.03-34.63,36.68h65.92Z"/>
    <path class="cls-1" d="M4620.57,55.3v35.65h32.32v17.19h-32.32v66.95c0,15.39,4.36,24.11,16.93,24.11,5.9,0,10.26-.77,13.08-1.54l1.03,16.93c-4.36,1.8-11.29,3.08-20.01,3.08-10.52,0-18.98-3.33-24.37-9.49-6.41-6.67-8.72-17.7-8.72-32.32v-67.72h-19.24v-17.19h19.24v-29.75l22.06-5.9Z"/>
    <path class="cls-1" d="M4747.03,215.1l-1.8-15.65h-.77c-6.92,9.75-20.26,18.47-37.96,18.47-25.14,0-37.96-17.7-37.96-35.65,0-30.01,26.68-46.43,74.64-46.17v-2.56c0-10.26-2.82-28.73-28.21-28.73-11.54,0-23.6,3.59-32.32,9.23l-5.13-14.88c10.26-6.67,25.14-11.03,40.78-11.03,37.96,0,47.2,25.91,47.2,50.79v46.43c0,10.77.51,21.29,2.05,29.75h-20.52ZM4743.69,151.74c-24.62-.51-52.58,3.85-52.58,27.96,0,14.62,9.75,21.55,21.29,21.55,16.16,0,26.42-10.26,30.01-20.78.77-2.31,1.28-4.87,1.28-7.18v-21.55Z"/>
  </g>
  <g>
    <g>
      <path class="cls-1" d="M847.28,0C873.03,0,895.11,1.66,913.51,4.97c18.39,3.31,31.64,6.44,39.75,9.38l-14.36,88.33c-8.09-2.94-19.14-6.08-33.12-9.39-13.98-3.31-30.91-4.97-50.78-4.97-47.84,0-81.33,13.08-100.47,39.2-19.14,26.12-28.7,61.27-28.7,105.42v49.69h220.81v86.11h-220.81v487.97h-102.67V230.73c0-73.59,18.03-130.45,54.09-170.56C713.31,20.06,770,0,847.28,0ZM1225.95,867.75c-63.31-1.48-108.2-15.09-134.7-40.86-26.5-25.75-39.73-65.86-39.73-120.33V17.66L1154.18,0v690c0,16.94,1.47,30.92,4.41,41.95,2.94,11.05,7.73,19.88,14.36,26.5,6.63,6.62,15.45,11.59,26.5,14.91,11.03,3.31,24.66,6.06,40.84,8.27l-14.34,86.12Z"/>
      <path class="cls-1" d="M1745.92,840.14c-23.56,5.89-54.66,12.14-93.3,18.77-38.64,6.63-83.34,9.94-134.12,9.94-44.16,0-81.33-6.45-111.5-19.31-30.19-12.88-54.47-31.09-72.88-54.66-18.41-23.55-31.64-51.33-39.73-83.34-8.09-32.01-12.14-67.53-12.14-106.55v-322.36h102.67v300.28c0,69.94,11.03,119.98,33.11,150.16,22.08,30.18,59.25,45.25,111.5,45.25,11.03,0,22.44-.36,34.22-1.09,11.78-.73,22.81-1.66,33.12-2.77,10.31-1.09,19.69-2.2,28.16-3.31,8.47-1.09,14.53-2.39,18.22-3.86v-484.66h102.67v557.52h0Z"/>
      <path class="cls-1" d="M1824.29,570.77c0-50.78,7.36-95.12,22.08-133.03,14.72-37.91,34.23-69.36,58.52-94.39,24.28-25.02,52.25-43.78,83.91-56.3,31.64-12.52,64.03-18.78,97.16-18.78,77.28,0,136.52,24.11,177.73,72.31,41.22,48.22,61.83,121.62,61.83,220.25v17.12c0,7-.38,13.44-1.09,19.31h-393.03c4.41,59.62,21.7,104.89,51.89,135.8,30.17,30.91,77.28,46.36,141.31,46.36,36.06,0,66.42-3.12,91.08-9.38,24.66-6.26,43.23-12.33,55.75-18.22l14.36,86.11c-12.52,6.62-34.41,13.62-65.69,20.98-31.28,7.34-66.8,11.03-106.55,11.03-50.05,0-93.28-7.55-129.72-22.62-36.44-15.09-66.42-35.88-89.97-62.38-23.56-26.5-41.05-57.95-52.45-94.39s-17.11-76.36-17.11-119.8v.02ZM2218.43,514.47c.72-46.38-10.88-84.45-34.78-114.27-23.92-29.81-56.86-44.72-98.81-44.72-23.56,0-44.34,4.61-62.38,13.81-18.04,9.2-33.31,21.16-45.81,35.88-12.52,14.72-22.27,31.66-29.27,50.78-7,19.14-11.59,38.64-13.8,58.52h284.85Z"/>
      <path class="cls-1" d="M2407.19,299.19c23.55-5.89,54.83-12.14,93.84-18.77,39-6.62,83.91-9.94,134.69-9.94,45.62,0,83.53,6.45,113.72,19.33,30.17,12.88,54.28,30.91,72.31,54.09,18.03,23.18,30.72,50.97,38.08,83.34,7.36,32.39,11.05,68.08,11.05,107.08v322.38h-102.67v-300.28c0-35.33-2.41-65.5-7.19-90.53-4.78-25.03-12.7-45.27-23.73-60.72-11.03-15.45-25.75-26.67-44.16-33.67-18.41-7-41.22-10.5-68.44-10.5-11.05,0-22.45.38-34.23,1.11-11.78.75-23,1.67-33.67,2.77-10.67,1.11-20.23,2.39-28.7,3.86-8.47,1.47-14.53,2.58-18.22,3.31v484.66h-102.67V299.19h-.01Z"/>
      <path class="cls-1" d="M3224.15,869.95c-46.38,0-87.05-7.36-122-22.08-34.97-14.72-64.41-35.33-88.33-61.83-23.92-26.5-41.77-57.95-53.55-94.39-11.78-36.44-17.66-76.73-17.66-120.89s6.44-84.62,19.31-121.44c12.88-36.8,31.09-68.62,54.66-95.5,23.55-26.86,52.44-47.83,86.66-62.92,34.22-15.09,72.31-22.64,114.28-22.64,25.75,0,51.52,2.22,77.28,6.62,25.75,4.42,50.41,11.42,73.97,20.98l-23.19,87.22c-15.47-7.36-33.31-13.25-53.55-17.67-20.25-4.41-41.77-6.62-64.58-6.62-57.41,0-101.39,18.03-131.94,54.09-30.55,36.06-45.81,88.69-45.81,157.88,0,30.92,3.48,59.27,10.48,85.02,7,25.77,18.03,47.84,33.12,66.23,15.08,18.41,34.39,32.56,57.95,42.5,23.55,9.94,52.25,14.91,86.12,14.91,27.22,0,51.88-2.56,73.95-7.72,22.07-5.16,39.38-10.67,51.89-16.56l14.36,86.11c-5.89,3.69-14.36,7.17-25.39,10.48-11.05,3.31-23.56,6.25-37.55,8.84-13.98,2.56-28.89,4.77-44.7,6.62-15.83,1.83-31.09,2.75-45.81,2.75h.03Z"/>
      <path class="cls-1" d="M3389.73,570.77c0-50.78,7.36-95.12,22.08-133.03,14.72-37.91,34.23-69.36,58.52-94.39,24.28-25.02,52.25-43.78,83.91-56.3,31.64-12.52,64.03-18.78,97.16-18.78,77.28,0,136.52,24.11,177.73,72.31,41.22,48.22,61.83,121.62,61.83,220.25v17.12c0,7-.38,13.44-1.09,19.31h-393.03c4.41,59.62,21.7,104.89,51.89,135.8,30.17,30.91,77.28,46.36,141.31,46.36,36.06,0,66.42-3.12,91.08-9.38,24.66-6.26,43.23-12.33,55.75-18.22l14.36,86.11c-12.52,6.62-34.41,13.62-65.69,20.98-31.28,7.34-66.8,11.03-106.55,11.03-50.05,0-93.28-7.55-129.72-22.62-36.44-15.09-66.42-35.88-89.97-62.38-23.56-26.5-41.05-57.95-52.45-94.39s-17.11-76.36-17.11-119.8v.02ZM3783.87,514.47c.72-46.38-10.88-84.45-34.78-114.27-23.92-29.81-56.86-44.72-98.81-44.72-23.56,0-44.34,4.61-62.38,13.81-18.04,9.2-33.31,21.16-45.81,35.88-12.52,14.72-22.27,31.66-29.27,50.78-7,19.14-11.59,38.64-13.8,58.52h284.85Z"/>
      <path class="cls-1" d="M4184.6,270.48c8.83,0,18.95.56,30.36,1.66,11.41,1.11,22.64,2.58,33.67,4.42,11.03,1.84,21.16,3.67,30.36,5.52,9.2,1.85,16.02,3.5,20.44,4.97l-17.67,89.42c-8.09-2.94-21.53-6.44-40.3-10.48-18.78-4.05-42.88-6.08-72.31-6.08-19.14,0-38.09,2.03-56.86,6.08-18.77,4.05-31.09,6.8-36.98,8.27v482.45h-102.67V306.91c24.28-8.83,54.47-17.11,90.53-24.83,36.06-7.72,76.53-11.59,121.44-11.59h-.01Z"/>
    </g>
    <g>
      <path class="cls-1" d="M438.68,827.34h95.6l-152.19-228.28-78.36,117.54,39.92,59.88c21.23,31.84,56.75,50.86,95.03,50.86h0Z"/>
      <path class="cls-1" d="M385.7,593.65l-3.61,5.41,152.19,228.28h-95.6c-38.28,0-73.8-19.02-95.03-50.86l-39.92-59.88-3.6,5.41-3.61,5.41,37.14,55.71c23.41,35.12,62.82,56.21,105.02,56.21h118.02l-167.4-251.1-3.6,5.41h0Z"/>
      <polygon class="cls-1" points="0 282.64 185.56 560.98 0 282.64 0 282.64"/>
      <polygon class="cls-1" points="0 839.34 20.72 839.34 195.93 576.53 185.56 560.99 0 839.34"/>
      <path class="cls-1" d="M345.21,352.6c24.67-37.01,65.95-59.1,110.42-59.1h93.83l7.24-10.86h-118.02c-42.2,0-81.61,21.09-105.02,56.2l-55.27,82.9,10.36,15.55,56.46-84.69h0Z"/>
      <path class="cls-1" d="M377.89,581.94l3.6-5.41,180.02-270.03h-105.88c-40.12,0-77.35,19.93-99.6,53.31l-59.47,89.21,43.99,66.08h-.01l-3.6,5.41-3.61,5.4-.17.26-78.19,117.29h0l.03.06-3.62,5.37-2.44,3.62-.2.29-.98,1.48h-.02s-14.43-21.68-14.43-21.68l-29.57-44.35-167.4,251.09-7.24,10.86h105.87c40.12,0,77.36-19.92,99.61-53.3l54.13-81.2,3.61-5.4h0l3.6-5.41,78.36-117.55,3.61-5.4h0Z"/>
      <path class="cls-1" d="M203.76,588.21l-3.9-5.87-3.9-5.86-10.35-15.56L.57,282.85h120.69c2.38,0,4.74.07,7.1.21.11.01.22.01.34.02-.05,0-.1-.01-.14-.01-3.49-.29-7-.44-10.54-.44H0h0s185.55,278.35,185.55,278.35h0l10.37,15.55,3.9,5.85,3.91,5.87,29.57,44.35-29.55-44.39h0Z"/>
      <polygon class="cls-1" points="247.76 654.28 248.74 652.81 247.75 654.27 247.76 654.28"/>
      <path class="cls-1" d="M285.33,454.13l-3.89-5.87-10.34-15.58-19.24-28.98-38.03-57.28c-19.57-30.52-51.56-49.42-86.47-51.39-2.02-.12-4.06-.18-6.1-.18H22.52l170.25,255.33,10.36,15.54,3.9,5.86,3.91,5.86,44.03,66.03h0l78.19-117.3-43.93-66.17-3.9-5.87h0Z"/>
      <path class="cls-1" d="M121.26,282.85H.57l185.04,278.07,10.35,15.56,3.9,5.86,3.9,5.87,29.55,44.39,14.43,21.69v-.02l1-1.47.2-.29,2.44-3.62,3.62-5.37-.03-.05-44.03-66.03-3.91-5.86-3.9-5.86-10.36-15.54L22.52,294.85h98.74c2.04,0,4.08.06,6.1.18,34.91,1.97,66.9,20.87,86.47,51.39l38.03,57.28,19.24,28.98,10.34,15.58,3.89,5.87,3.9,5.87,43.93,66.17.17-.26,3.61-5.4,3.6-5.4h.01l-43.99-66.09-3.91-5.87-3.9-5.86-10.36-15.55-54.46-81.8c-21.54-33.6-56.73-54.47-95.23-56.86-.12-.01-.23-.01-.34-.02-2.36-.14-4.72-.21-7.1-.21h0Z"/>
    </g>
  </g>
</svg>