<svg width="36" height="36" viewBox="0 0 36 36" fill="none" xmlns="http://www.w3.org/2000/svg">
<g id="Group 427320945">
<circle id="Ellipse 2870" cx="18" cy="18" r="17.5" fill="url(#paint0_linear_751_437)" stroke="black"/>
<g id="Group 427320944">
<g id="Union">
<mask id="path-2-outside-1_751_437" maskUnits="userSpaceOnUse" x="8.82031" y="8.82031" width="19" height="19" fill="black">
<rect fill="white" x="8.82031" y="8.82031" width="19" height="19"/>
<path fill-rule="evenodd" clip-rule="evenodd" d="M19.6385 11.4567C19.6385 10.5529 18.9059 9.82031 18.0021 9.82031C17.0984 9.82031 16.3658 10.5529 16.3658 11.4567V16.3658H11.4567C10.5529 16.3658 9.82031 17.0984 9.82031 18.0021C9.82031 18.9059 10.5529 19.6385 11.4567 19.6385H16.3658V24.5476C16.3658 25.4513 17.0984 26.1839 18.0021 26.1839C18.9059 26.1839 19.6385 25.4513 19.6385 24.5476V19.6385H24.5476C25.4513 19.6385 26.1839 18.9059 26.1839 18.0021C26.1839 17.0984 25.4513 16.3658 24.5476 16.3658H19.6385V11.4567Z"/>
</mask>
<path fill-rule="evenodd" clip-rule="evenodd" d="M19.6385 11.4567C19.6385 10.5529 18.9059 9.82031 18.0021 9.82031C17.0984 9.82031 16.3658 10.5529 16.3658 11.4567V16.3658H11.4567C10.5529 16.3658 9.82031 17.0984 9.82031 18.0021C9.82031 18.9059 10.5529 19.6385 11.4567 19.6385H16.3658V24.5476C16.3658 25.4513 17.0984 26.1839 18.0021 26.1839C18.9059 26.1839 19.6385 25.4513 19.6385 24.5476V19.6385H24.5476C25.4513 19.6385 26.1839 18.9059 26.1839 18.0021C26.1839 17.0984 25.4513 16.3658 24.5476 16.3658H19.6385V11.4567Z" fill="white"/>
<path d="M16.3658 16.3658V17.3658H17.3658V16.3658H16.3658ZM16.3658 19.6385H17.3658V18.6385H16.3658V19.6385ZM19.6385 19.6385V18.6385H18.6385V19.6385H19.6385ZM19.6385 16.3658H18.6385V17.3658H19.6385V16.3658ZM18.0021 10.8203C18.3536 10.8203 18.6385 11.1052 18.6385 11.4567H20.6385C20.6385 10.0007 19.4582 8.82031 18.0021 8.82031V10.8203ZM17.3658 11.4567C17.3658 11.1052 17.6507 10.8203 18.0021 10.8203V8.82031C16.5461 8.82031 15.3658 10.0007 15.3658 11.4567H17.3658ZM17.3658 16.3658V11.4567H15.3658V16.3658H17.3658ZM11.4567 17.3658H16.3658V15.3658H11.4567V17.3658ZM10.8203 18.0021C10.8203 17.6507 11.1052 17.3658 11.4567 17.3658V15.3658C10.0007 15.3658 8.82031 16.5461 8.82031 18.0021H10.8203ZM11.4567 18.6385C11.1052 18.6385 10.8203 18.3536 10.8203 18.0021H8.82031C8.82031 19.4582 10.0007 20.6385 11.4567 20.6385V18.6385ZM16.3658 18.6385H11.4567V20.6385H16.3658V18.6385ZM17.3658 24.5476V19.6385H15.3658V24.5476H17.3658ZM18.0021 25.1839C17.6507 25.1839 17.3658 24.899 17.3658 24.5476H15.3658C15.3658 26.0036 16.5461 27.1839 18.0021 27.1839V25.1839ZM18.6385 24.5476C18.6385 24.899 18.3536 25.1839 18.0021 25.1839V27.1839C19.4582 27.1839 20.6385 26.0036 20.6385 24.5476H18.6385ZM18.6385 19.6385V24.5476H20.6385V19.6385H18.6385ZM24.5476 18.6385H19.6385V20.6385H24.5476V18.6385ZM25.1839 18.0021C25.1839 18.3536 24.899 18.6385 24.5476 18.6385V20.6385C26.0036 20.6385 27.1839 19.4582 27.1839 18.0021H25.1839ZM24.5476 17.3658C24.899 17.3658 25.1839 17.6507 25.1839 18.0021H27.1839C27.1839 16.5461 26.0036 15.3658 24.5476 15.3658V17.3658ZM19.6385 17.3658H24.5476V15.3658H19.6385V17.3658ZM18.6385 11.4567V16.3658H20.6385V11.4567H18.6385Z" fill="black" mask="url(#path-2-outside-1_751_437)"/>
</g>
</g>
</g>
<defs>
<linearGradient id="paint0_linear_751_437" x1="-2.17928e-08" y1="18.1053" x2="36" y2="18.1053" gradientUnits="userSpaceOnUse">
<stop stop-color="#99E2E8"/>
<stop offset="1" stop-color="#F7E7F7"/>
</linearGradient>
</defs>
</svg>
